<svg width="332" height="420" viewBox="0 0 332 420" fill="none" xmlns="http://www.w3.org/2000/svg">
<rect width="332" height="419.227" fill="white"/>
<path fill-rule="evenodd" clip-rule="evenodd" d="M166.118 78.6104C244.288 95.1916 298.8 151.53 298.8 241.48C298.8 349.296 231.078 237.273 184.381 300.133C137.684 362.992 38.1957 364.775 33.4367 241.48C28.9816 126.062 87.949 62.0291 166.118 78.6104Z" fill="#64FCD9"/>
<path fill-rule="evenodd" clip-rule="evenodd" d="M126.161 252.908L146.839 219.132L147.314 219.606C150.367 222.638 152.789 224.636 154.579 225.601L155.108 225.884C163.706 230.45 169.617 232.002 168.667 233.074L167.491 234.409C159.892 243.071 149.488 255.666 136.279 272.196C134.47 274.657 132.032 276.236 129.399 276.658L126.674 277.069C99.9357 281.066 82.7813 281.41 76.4953 279.653C75.1824 279.286 71.1416 280.244 68.0908 284.114C63.5145 289.918 56.9703 303.9 55.8713 303.9C54.2736 303.9 55.7791 294.639 60.3878 276.117L60.8749 273.965C63.0221 264.565 64.5667 259.008 65.5088 257.292C66.5208 255.449 69.9389 258.702 75.7634 267.052L75.6055 268.137C76.3613 267.029 77.2575 265.851 78.2938 264.603L81.0457 264.187C90.7677 262.696 98.1575 261.333 103.215 260.098L103.748 259.966C109.227 258.595 116.698 256.242 126.161 252.908Z" fill="white"/>
<path fill-rule="evenodd" clip-rule="evenodd" d="M254.927 217.916L262.615 225.232C264.091 226.634 265.173 228.6 265.7 230.835L267.156 236.995C267.842 238.858 267.243 241.072 265.797 242.015L263.082 244.559C261.336 245.697 259.207 244.464 258.748 242.049L257.22 235.184C257.22 235.184 250.741 232.699 249.879 222.962L254.927 217.916Z" fill="white"/>
<path fill-rule="evenodd" clip-rule="evenodd" d="M217.869 97.7597C223.123 98.0296 225.763 107.121 227.481 111.614C228.065 113.145 223.951 158.388 222.606 169.966C220.211 190.583 212.975 197.121 208.432 198.524C208.432 198.524 208.704 221.965 206.801 227.799C202.588 240.717 149.254 232.047 144.042 210.455C140.478 195.695 153.72 193.975 158.69 185.076C167.798 168.766 168.271 153.586 178.082 142.728C181.801 137.582 186.117 132.417 189.841 126.207L191.356 123.69C200.826 108.023 208.037 97.6286 217.376 97.7439L217.869 97.7597Z" fill="white"/>
<path fill-rule="evenodd" clip-rule="evenodd" d="M191.528 136.976C190.658 137.506 189.385 137.671 188.931 136.594C187.507 133.215 183.148 132.751 181.295 135.78C183.073 135.009 185.145 134.272 186.735 135.54C187.177 135.893 187.56 136.387 187.938 136.876C188.568 137.691 189.187 138.492 190.054 138.6C190.699 138.68 191.313 138.337 191.925 137.995C192.581 137.629 193.233 137.265 193.917 137.427C194.676 137.607 195.208 138.37 195.74 139.133C196.271 139.893 196.802 140.654 197.558 140.838C198.177 140.989 198.799 140.709 199.415 140.431C200.103 140.12 200.785 139.813 201.448 140.115C202.239 140.475 202.6 141.504 202.962 142.534C203.322 143.559 203.682 144.585 204.466 144.954C204.93 145.173 205.432 145.094 205.927 144.972L206.418 144.845C207.575 144.554 208.825 144.528 209.884 145.186C210.793 145.751 211.51 146.921 211.569 148.17C211.592 147.901 211.613 147.632 211.631 147.363L211.815 145.843C210.765 144.287 209.116 143.407 207.5 143.542C207.223 143.566 206.946 143.617 206.67 143.668C206.138 143.766 205.607 143.864 205.078 143.763C204.276 143.608 203.46 142.746 203.596 141.736L203.608 141.627C203.755 139.935 201.96 138.965 200.58 139.107C200.287 139.138 199.986 139.187 199.684 139.236C198.534 139.425 197.357 139.618 196.454 138.783C196.105 138.46 195.835 138.008 195.568 137.561C195.194 136.935 194.825 136.317 194.251 136.074C193.617 135.805 192.973 136.087 192.347 136.462L192.14 136.59L191.528 136.976ZM181.521 148.741C182.12 149.756 183.352 149.188 184.304 148.749L184.354 148.726C186.906 147.55 189.981 148.468 191.846 150.961C192.868 152.328 194.381 151.946 195.948 151.551C197.256 151.22 198.602 150.88 199.731 151.543C200.258 151.853 200.748 152.377 201.228 152.891C202.107 153.832 202.953 154.738 203.939 154.225C205.808 153.253 208.102 153.771 209.603 155.473L209.598 156.01L209.591 157.192C208.1 155.305 205.684 154.694 203.732 155.71C202.746 156.223 201.9 155.317 201.02 154.376C200.541 153.862 200.051 153.338 199.523 153.028C198.395 152.365 197.049 152.705 195.74 153.035C194.174 153.431 192.661 153.813 191.638 152.446C189.811 150.002 186.821 149.073 184.3 150.143L183.797 150.371C182.9 150.772 181.851 151.137 181.314 150.226C179.618 147.352 176.213 146.344 173.682 147.968L174.009 146.409L174.159 146.322C176.657 144.933 179.885 145.968 181.521 148.741ZM175.71 161.558C174.772 162.043 173.558 162.671 172.929 161.685C171.782 159.891 169.164 159.76 165.072 161.293C165.385 161.561 166.192 161.535 167.187 161.502C169.061 161.44 171.603 161.357 172.767 163.179C173.331 164.064 174.368 163.648 175.253 163.203L175.749 162.951C178.235 161.76 181.251 162.544 183.151 164.897C184.215 166.214 185.715 165.758 187.268 165.287C188.566 164.894 189.901 164.489 191.048 165.096C191.585 165.38 192.09 165.881 192.585 166.371C193.492 167.269 194.366 168.133 195.335 167.573L195.47 167.498C196.568 166.912 198.678 167.899 200.591 168.793C201.982 169.444 203.269 170.045 203.986 169.957C199.552 166.663 196.722 165.37 195.497 166.079L195.4 166.13C194.469 166.581 193.624 165.745 192.747 164.877C192.252 164.387 191.747 163.887 191.21 163.603C190.063 162.995 188.728 163.4 187.43 163.793C185.877 164.265 184.377 164.72 183.313 163.403C181.374 161.002 178.273 160.234 175.759 161.533L175.71 161.558ZM184.402 215.939C185.527 216.851 186.983 218.032 188.024 217.384C189.862 216.239 193.173 217.255 197.959 220.43L198.419 220.739C197.95 220.848 196.897 220.439 195.599 219.935C193.153 218.986 189.836 217.698 187.911 218.896C186.976 219.478 185.707 218.586 184.643 217.738L184.048 217.261C181.239 215.084 177.445 214.349 174.505 215.376C173.562 215.872 172.249 215.291 170.807 214.654C169.826 214.22 168.784 213.76 167.759 213.594C166.494 213.389 165.843 213.512 165.271 213.62C164.697 213.728 164.204 213.822 163.252 213.553C162.515 213.345 161.339 212.695 159.722 211.603C156.856 209.866 151.777 210.076 149.104 211.284L148.959 211.347C146.102 212.54 146.126 211.233 148.999 209.872L149.217 209.771L149.389 209.696C152.443 208.412 158.099 208.553 161.059 210.95L161.117 210.998C162.242 211.909 163.699 213.09 164.739 212.442L164.816 212.398C165.544 212.02 167.247 212.027 167.775 212.071L167.872 212.081C169.649 212.33 170.036 212.533 170.458 212.922L170.76 213.211L170.933 213.295C171.575 213.611 172.257 213.985 172.977 214.416C173.275 214.383 173.618 214.284 174.022 214.101L174.194 214.026C177.248 212.742 181.384 213.495 184.343 215.892L184.402 215.939ZM171.17 172.865C171.836 173.85 173.121 173.222 174.113 172.738L174.165 172.712C176.825 171.414 180.105 172.182 182.157 174.583C183.282 175.899 184.869 175.444 186.512 174.973C187.885 174.579 189.297 174.174 190.511 174.782C191.079 175.066 191.613 175.566 192.137 176.056C193.064 176.924 193.958 177.76 194.943 177.31L195.046 177.258C196.342 176.55 199.336 177.843 204.027 181.137C203.268 181.225 201.907 180.623 200.435 179.972C198.412 179.078 196.179 178.092 195.017 178.677L194.874 178.752C193.849 179.312 192.925 178.448 191.965 177.55C191.442 177.06 190.907 176.56 190.339 176.276C189.125 175.668 187.713 176.073 186.341 176.467C184.697 176.938 183.11 177.393 181.985 176.077C179.974 173.723 176.784 172.939 174.154 174.131L173.629 174.383C172.693 174.828 171.597 175.243 170.999 174.359C169.768 172.536 167.079 172.62 165.096 172.681C164.043 172.714 163.189 172.74 162.859 172.472C167.187 170.939 169.958 171.07 171.17 172.865ZM170.495 185.035C169.354 185.519 167.876 186.147 167.11 185.162C165.715 183.368 162.527 183.237 157.547 184.77C157.927 185.038 158.909 185.011 160.121 184.979C162.402 184.917 165.496 184.834 166.912 186.656C167.6 187.54 168.862 187.125 169.938 186.68L170.542 186.428C173.568 185.236 177.239 186.021 179.553 188.374C180.847 189.69 182.673 189.235 184.564 188.764C186.143 188.37 187.767 187.965 189.164 188.573C189.818 188.857 190.433 189.357 191.035 189.847C192.139 190.745 193.202 191.609 194.382 191.049L194.546 190.974C195.883 190.389 198.452 191.376 200.779 192.27C202.473 192.92 204.039 193.522 204.912 193.434C199.515 190.14 196.071 188.847 194.579 189.555L194.461 189.607C193.328 190.058 192.3 189.221 191.232 188.353C190.63 187.863 190.015 187.363 189.362 187.079C187.965 186.472 186.34 186.876 184.761 187.27C182.87 187.741 181.044 188.197 179.75 186.88C177.389 184.479 173.615 183.711 170.555 185.01L170.495 185.035ZM161.632 194.665C162.49 195.65 164.148 195.022 165.429 194.537L165.495 194.512C168.927 193.214 173.16 193.981 175.807 196.382C177.259 197.699 179.307 197.244 181.427 196.773C183.199 196.379 185.02 195.974 186.587 196.582C187.32 196.866 188.009 197.366 188.685 197.856C189.882 198.724 191.035 199.56 192.306 199.11L192.439 199.058C194.111 198.35 197.974 199.642 204.027 202.936C203.048 203.024 201.291 202.423 199.392 201.772C196.781 200.878 193.901 199.892 192.401 200.477L192.217 200.552C190.894 201.112 189.702 200.248 188.464 199.35C187.788 198.86 187.098 198.36 186.366 198.076C184.799 197.468 182.977 197.873 181.206 198.266C179.086 198.738 177.038 199.193 175.586 197.876C172.992 195.523 168.875 194.739 165.481 195.93L164.804 196.182C163.596 196.627 162.181 197.043 161.41 196.158C159.821 194.336 156.352 194.42 153.793 194.481C152.435 194.514 151.334 194.54 150.907 194.272C156.492 192.739 160.067 192.87 161.632 194.665ZM161.445 202.922C160.164 203.407 158.506 204.034 157.648 203.049C156.083 201.255 152.508 201.124 146.923 202.657C147.35 202.925 148.451 202.898 149.809 202.866C152.368 202.804 155.837 202.721 157.426 204.543C158.197 205.427 159.612 205.012 160.82 204.567L161.497 204.315C164.672 203.2 168.479 203.815 171.081 205.825C171.879 206.629 173.268 206.529 174.794 206.418C175.831 206.343 176.933 206.263 177.955 206.46C179.215 206.703 179.815 207.048 180.341 207.351C180.869 207.655 181.323 207.916 182.297 207.989C183.426 208.074 186.115 207.344 186.115 207.344C189.25 206.671 194.086 208.641 196.391 210.733L196.517 210.843C199.064 213.037 199.277 211.655 196.613 209.239L196.464 209.107C193.809 206.81 188.341 204.976 184.972 206.25L184.906 206.276C183.626 206.76 181.968 207.388 181.109 206.403C180.51 205.716 178.554 205.047 178.176 204.966C176.183 204.537 175.912 204.671 175.307 204.972C175.258 204.996 175.207 205.021 175.153 205.047L174.969 205.068C174.282 205.148 173.546 205.27 172.759 205.434C172.48 205.298 172.173 205.084 171.823 204.767L171.675 204.635C169.019 202.338 164.88 201.622 161.511 202.897L161.445 202.922Z" fill="#FFB61D"/>
<path fill-rule="evenodd" clip-rule="evenodd" d="M216.175 104.566C223.643 104.598 229.537 112.599 229.034 122.017C229.034 122.017 220.324 169.859 224.739 186.864C226.446 193.442 251.102 213.914 250.059 216.017L246.58 226.543C245.344 229.035 207.501 197.071 207.501 197.071C203.871 193.431 203.196 121.077 203.196 121.077C203.124 111.964 208.964 104.534 216.175 104.566Z" fill="white"/>
<path d="M255.374 217.916L250.927 229.48L250.838 229.789C250.468 230.987 249.053 231.72 248.871 231.779L248.845 231.779L246.218 229.816C245.918 229.497 245.753 227.707 246.071 226.042L246.146 225.692C246.146 225.692 248.228 216.456 249.952 214.124C250.958 212.764 256.767 214.124 255.374 217.916Z" fill="white"/>
<path fill-rule="evenodd" clip-rule="evenodd" d="M192.019 324.555H181.402C181.402 324.555 193.863 283.705 193.863 272.985C193.863 269.66 184.068 274.67 185.489 269.66C187.443 262.772 194.203 250.455 192.538 244.271C190.797 237.805 184.301 235.462 178.644 232.841C177.56 232.339 197.333 234.073 202.757 228.625C209.911 221.439 204.103 205.569 206.024 211.165C208.342 217.916 223.405 234.853 220.419 253.193C217.51 271.061 192.019 324.555 192.019 324.555Z" fill="white"/>
<path fill-rule="evenodd" clip-rule="evenodd" d="M188.339 332.432L187.28 331.988C187.207 331.957 187.197 331.858 187.262 331.813L188.28 331.115V329.56C188.28 329.469 188.393 329.425 188.454 329.493L189.246 330.372L190.576 329.487C190.659 329.432 190.763 329.519 190.723 329.611L189.948 331.396L191.448 333.374C191.508 333.454 191.428 333.563 191.334 333.529L189.303 332.789L188.53 334.508C188.486 334.607 188.339 334.575 188.339 334.467V333.683V332.432Z" fill="#FFB61D"/>
<path fill-rule="evenodd" clip-rule="evenodd" d="M161.424 242.277C160.962 242.882 160.506 243.494 160.05 244.106L160.05 244.107C159.187 245.264 158.324 246.422 157.424 247.533C155.741 249.611 154.041 251.678 152.255 253.611C150.039 256.009 147.769 258.333 145.446 260.565C142.819 263.089 140.128 265.512 137.425 267.908C137.281 268.035 137.138 268.163 136.995 268.291C135.616 269.526 134.238 270.76 132.467 271.141C131.961 271.25 131.488 271.571 131.012 271.893L131.012 271.893C130.633 272.15 130.252 272.408 129.851 272.561C127.088 273.619 124.311 274.626 121.517 275.54C119.801 276.101 118.049 276.501 116.302 276.885C115.214 277.125 108.984 278.375 104.84 279.134C100.695 279.894 86.988 279.894 83.5658 279.804C81.6455 279.754 79.7256 279.669 77.8062 279.577L77.7071 279.572C77.3159 279.555 76.9003 279.536 76.5605 279.342C74.6754 278.263 73.2168 279.438 71.7386 280.628L71.6323 280.714C69.6916 282.274 68.5039 284.623 67.3303 287.028C66.7068 288.306 66.0462 289.555 65.3856 290.804L65.3855 290.804C64.6746 292.148 63.9636 293.492 63.2991 294.872C62.4193 296.698 61.6347 298.6 60.8509 300.499L60.85 300.501L60.8497 300.502L60.8494 300.503L60.849 300.504C60.7087 300.844 60.5683 301.184 60.4275 301.523C59.3913 304.022 57.8368 305.474 55.6065 306.012C54.498 306.279 53.5485 305.864 52.6012 305.449L52.6007 305.449L52.6003 305.449C52.2496 305.295 51.8991 305.142 51.541 305.023C50.8396 304.791 50.2741 302.398 50.5243 301.451C51.2523 298.694 51.9818 295.939 52.7113 293.183L52.7124 293.179L52.7177 293.159L52.7178 293.158C54.2469 287.382 55.7761 281.605 57.2919 275.824C58.3504 271.786 59.3839 267.738 60.4174 263.69C60.7093 262.546 61.0013 261.403 61.2937 260.259C61.433 259.715 61.5653 259.168 61.6976 258.62L61.6976 258.62C61.9169 257.713 62.1362 256.806 62.3872 255.912C62.4694 255.62 62.8097 255.259 63.0411 255.247C64.7133 255.163 66.3188 255.68 67.8442 256.47C70.728 257.965 72.9471 260.485 74.5761 263.841C75.008 264.73 75.7619 265.05 76.7127 264.838C77.1714 264.736 77.6343 264.659 78.097 264.582C78.8037 264.464 79.51 264.346 80.2 264.139C81.7348 263.679 83.2883 263.664 84.8414 263.648C85.8414 263.638 86.8411 263.628 87.8356 263.5C88.5191 263.411 89.2063 263.361 89.8933 263.31H89.8934C90.8106 263.243 91.7275 263.175 92.6349 263.018C94.286 262.731 95.929 262.37 97.572 262.008L97.5727 262.008L97.5734 262.008L97.5768 262.007L97.5799 262.006L97.5831 262.006L97.5863 262.005C98.3606 261.835 99.135 261.664 99.9102 261.502C100.54 261.37 101.17 261.245 101.801 261.121L101.802 261.12L101.803 261.12L101.803 261.12L101.804 261.12L101.805 261.12L101.806 261.12L101.806 261.12L101.807 261.12C103.026 260.879 104.244 260.638 105.455 260.344C107.004 259.969 108.541 259.511 110.078 259.053L110.633 258.888C112.257 258.405 113.879 257.907 115.5 257.409L115.526 257.401C116.198 257.194 116.87 256.988 117.543 256.782C117.616 256.76 117.688 256.736 117.761 256.713L117.863 256.68C117.845 256.667 117.826 256.655 117.808 256.643L117.752 256.606C117.671 256.554 117.591 256.501 117.514 256.441C117.278 256.257 117.035 256.084 116.792 255.91L116.792 255.91C116.237 255.513 115.682 255.116 115.21 254.599C114.148 253.436 114.511 251.503 115.861 250.988C116.889 250.596 117.95 250.202 119.012 250.112C120.443 249.991 121.747 249.391 123.052 248.79L123.052 248.79L123.052 248.79L123.052 248.79L123.053 248.79L123.053 248.79L123.053 248.79L123.053 248.79C123.577 248.548 124.101 248.307 124.634 248.097C125.892 247.6 126.647 246.665 127.279 245.234C127.583 244.545 128.029 243.961 128.477 243.374C128.792 242.96 129.108 242.546 129.377 242.093C130.768 239.745 132.121 237.359 133.438 234.943C133.718 234.429 133.942 233.868 134.167 233.307C134.339 232.877 134.511 232.448 134.708 232.039C135.171 231.079 135.641 230.108 136.212 229.254L136.286 229.142C137.596 227.181 138.909 225.215 140.333 223.392C141.109 222.398 141.966 221.505 142.823 220.611L142.823 220.611L142.823 220.611L142.823 220.611C143.228 220.189 143.633 219.767 144.029 219.334C144.23 219.116 144.422 218.879 144.59 218.622C144.879 218.18 144.998 217.813 144.562 217.291C144.448 217.155 144.334 217.02 144.22 216.884C143.082 215.533 141.933 214.169 141.311 212.299C141.245 212.103 141.18 211.907 141.114 211.711C140.614 210.222 140.11 208.72 139.826 207.161C139.444 205.063 139.598 202.927 140.093 200.813C140.786 197.855 142.237 195.613 144.202 194.004C145.415 193.012 146.69 192.144 147.966 191.276L147.967 191.276C148.912 190.632 149.858 189.989 150.779 189.294C151.49 188.757 152.099 187.976 152.693 187.214C152.75 187.141 152.806 187.068 152.863 186.996C155.536 183.581 157.399 179.448 159.255 175.331L159.255 175.33L159.256 175.329L159.256 175.329L159.256 175.328C159.453 174.891 159.65 174.455 159.847 174.019C161.641 170.067 163.251 165.976 164.856 161.892C165.318 160.716 165.714 159.498 166.11 158.281L166.11 158.281L166.11 158.281L166.11 158.281L166.11 158.28L166.11 158.28L166.11 158.28L166.11 158.28C166.46 157.204 166.81 156.128 167.206 155.079C167.519 154.251 167.905 153.467 168.291 152.683L168.291 152.683L168.291 152.683L168.291 152.683L168.291 152.683L168.291 152.682L168.291 152.682L168.291 152.682L168.291 152.682C168.575 152.106 168.859 151.529 169.114 150.934C169.388 150.295 169.638 149.638 169.888 148.981C170.267 147.987 170.646 146.993 171.107 146.064C171.436 145.399 171.913 144.852 172.389 144.305L172.389 144.305L172.39 144.305L172.39 144.305L172.39 144.305L172.39 144.305L172.39 144.305L172.39 144.305C172.589 144.076 172.789 143.847 172.977 143.61C173.212 143.314 173.451 143.023 173.69 142.733C173.939 142.43 174.188 142.127 174.433 141.818C174.864 141.274 175.29 140.722 175.703 140.156C176.497 139.067 177.295 137.984 178.094 136.9C180.063 134.228 182.032 131.556 183.936 128.811C186.166 125.596 188.289 122.255 190.373 118.884C191.202 117.544 191.949 116.123 192.696 114.703C193.028 114.07 193.361 113.437 193.701 112.811C193.715 112.785 193.727 112.757 193.739 112.729L193.752 112.699L193.752 112.698C193.774 112.643 193.797 112.589 193.829 112.544C194.366 111.797 194.898 111.042 195.43 110.287L195.431 110.286L195.431 110.285L195.432 110.284L195.433 110.283L195.433 110.282L195.435 110.28L195.436 110.278L195.437 110.278L195.437 110.277C196.691 108.498 197.945 106.719 199.271 105.032C201.24 102.527 203.495 100.451 205.943 98.7214C206.316 98.4577 206.676 98.1583 207.035 97.8593C207.602 97.3882 208.167 96.9181 208.781 96.5901C208.841 96.5581 208.901 96.5258 208.961 96.4932C209.047 96.447 209.133 96.4004 209.219 96.3536C210.392 95.7171 211.623 95.0497 212.834 95.0184C215.39 94.9523 218.046 94.9888 220.192 97.27C220.598 97.7022 220.706 97.6003 220.745 97.0222C220.781 96.4705 220.856 95.9024 220.93 95.334L220.93 95.3335L220.93 95.333C221.103 94.0082 221.276 92.6823 220.974 91.5611C220.792 90.8832 220.728 90.1991 220.665 89.5209C220.594 88.7538 220.523 87.9943 220.283 87.2599C219.478 84.8046 218.76 82.3034 218.042 79.8033L217.898 79.302L217.718 78.6754C217.493 77.8953 217.31 77.0758 217.227 76.2551C217.167 75.6686 217.147 75.0755 217.127 74.4825C217.107 73.8738 217.086 73.2652 217.023 72.6636C216.798 70.5241 217.385 68.6442 217.975 66.7568C218.082 66.4122 218.19 66.0674 218.293 65.7207C219.546 61.4977 221.894 58.3039 224.429 55.3046C226.611 52.7224 230.227 51.9099 233.151 51.2731C234.231 51.0379 241.811 50.8129 245.814 50.6941C247.121 50.6554 248.046 50.6279 248.24 50.6151C249.03 50.563 249.565 50.0992 250.099 49.6013C251.203 48.5735 251.486 46.9796 251.765 45.4111V45.411L251.765 45.4101L251.766 45.4092L251.766 45.4082L251.766 45.4073L251.766 45.4063L251.766 45.4054L251.767 45.4044C251.794 45.252 251.821 45.0999 251.848 44.9485C251.855 44.9112 251.862 44.8746 251.868 44.8391C251.94 44.4278 251.99 44.1395 252.48 44.1602C254.115 44.2296 254.955 45.5776 255.756 47.1179C256.657 48.8525 257.388 50.6611 257.638 52.7286C257.943 55.246 257.779 57.5844 256.362 59.6575C255.209 61.3436 253.867 62.6322 252.35 63.7136C252.149 63.8571 252.022 64.6173 252.134 64.942C253.276 68.2697 253.361 71.7777 253.249 75.2997C253.222 76.1546 253.113 77.0049 253.003 77.8555C252.899 78.6613 252.795 79.4674 252.761 80.2777C252.664 82.6017 253.041 84.8368 253.779 86.9981C254.28 88.4644 253.928 89.8529 253.088 91.0053C252.944 91.2026 252.765 91.3679 252.587 91.5317L252.587 91.5317C252.337 91.7622 252.09 91.9899 251.949 92.3004C251.63 93.0029 251.408 93.8481 251.356 94.6538C251.316 95.2704 251.369 95.895 251.421 96.5211C251.454 96.9101 251.486 97.2996 251.497 97.6881C251.538 99.1837 251.088 100.463 250.48 101.74C249.381 104.05 247.93 105.75 245.824 106.306C244.019 106.783 242.146 106.811 240.403 106.061C238.425 105.21 236.497 104.12 234.635 102.915C234.107 102.573 233.688 101.958 233.27 101.343L233.27 101.343C233.083 101.068 232.896 100.793 232.699 100.543C232.408 100.172 232.26 100.065 231.873 100.583C230.489 102.433 229.484 104.535 228.671 106.856C228.222 108.137 228.513 109.19 228.823 110.311L228.859 110.443C228.889 110.55 228.918 110.656 228.948 110.763L228.948 110.763C229.377 112.316 229.805 113.861 229.771 115.56C229.755 116.402 229.768 117.246 229.781 118.09C229.801 119.424 229.821 120.756 229.726 122.076C229.623 123.488 229.372 124.884 229.121 126.278L229.121 126.279L229.121 126.279L229.121 126.279L229.121 126.279L229.121 126.279L229.121 126.28C229.02 126.841 228.919 127.401 228.828 127.963C228.731 128.56 228.636 129.158 228.541 129.755C228.254 131.562 227.967 133.37 227.624 135.16C227.465 135.988 227.247 136.798 227.029 137.609C226.85 138.272 226.672 138.935 226.525 139.609C226.356 140.39 226.184 141.171 226.013 141.951C225.345 144.986 224.677 148.023 224.137 151.094C223.674 153.724 223.407 156.429 223.252 159.119C223.155 160.802 223.169 162.494 223.184 164.186C223.192 165.122 223.2 166.058 223.189 166.992C223.181 167.699 223.152 168.405 223.123 169.11L223.123 169.111V169.112V169.112V169.113V169.113V169.114V169.114V169.115C223.086 170.012 223.049 170.908 223.055 171.804C223.058 172.162 223.06 172.521 223.062 172.879V172.879C223.074 175.25 223.087 177.624 223.251 179.98C223.416 182.33 223.769 184.671 224.177 186.977C224.512 188.871 225.541 190.335 226.561 191.708C227.092 192.422 227.681 193.067 228.27 193.712L228.27 193.712L228.27 193.712L228.27 193.712L228.27 193.712L228.27 193.712L228.271 193.712L228.271 193.713L228.271 193.713L228.271 193.713L228.271 193.713L228.271 193.713L228.271 193.713L228.271 193.713L228.271 193.713C228.683 194.164 229.096 194.616 229.488 195.091C229.757 195.417 229.999 195.78 230.241 196.143L230.241 196.143L230.241 196.143L230.242 196.143L230.242 196.143L230.242 196.143L230.242 196.143L230.242 196.144C230.543 196.595 230.844 197.045 231.195 197.422C232.341 198.653 233.506 199.855 234.671 201.057C235.556 201.969 236.44 202.881 237.316 203.805C238.101 204.635 238.875 205.481 239.649 206.328L239.65 206.33C240.431 207.185 241.213 208.041 242.007 208.878C243.092 210.023 244.193 211.152 245.342 212.189C245.884 212.678 246.45 213.121 247.017 213.564L247.017 213.564C247.604 214.023 248.19 214.481 248.748 214.99C249.417 215.6 249.937 215.256 250.453 214.915C250.631 214.797 250.809 214.68 250.992 214.601C252.481 213.966 253.659 214.206 254.217 216.014C254.329 216.376 254.5 216.702 254.672 217.03C254.985 217.626 255.301 218.229 255.274 219.07C255.265 219.334 255.715 219.648 256.101 219.917C256.145 219.948 256.188 219.978 256.229 220.007C256.275 220.039 256.318 220.07 256.359 220.101C257.493 220.946 258.641 221.762 259.79 222.576C260.035 222.749 260.288 222.908 260.542 223.066C261.029 223.371 261.516 223.675 261.939 224.086C262.371 224.503 262.762 224.987 263.154 225.47C263.547 225.955 263.939 226.44 264.372 226.858C265.263 227.72 265.768 228.905 266.27 230.084C266.455 230.517 266.639 230.948 266.841 231.363C267.4 232.507 267.723 233.912 267.909 235.254C268.16 237.063 268.262 238.924 268.256 240.762C268.253 241.53 267.884 242.354 267.546 243.046C267.181 243.792 266.634 243.898 266.106 243.178C266.063 243.118 266.002 243.08 265.942 243.041C265.914 243.023 265.885 243.005 265.859 242.985C265.855 243.03 265.851 243.075 265.848 243.12C265.839 243.218 265.831 243.315 265.821 243.412C265.787 243.721 265.76 244.033 265.733 244.344V244.344C265.667 245.111 265.601 245.877 265.43 246.605C265.316 247.093 264.82 247.737 264.477 247.758C264.213 247.773 263.935 247.463 263.66 247.156L263.66 247.156C263.549 247.032 263.439 246.91 263.331 246.809C263.225 246.71 263.135 246.582 263.046 246.456L263.046 246.456L263.018 246.415C262.963 246.337 262.913 246.251 262.864 246.165L262.831 246.107L262.821 246.091L262.798 246.052C262.781 246.096 262.765 246.14 262.749 246.185L262.722 246.256C262.705 246.303 262.688 246.349 262.67 246.395C262.66 246.422 262.649 246.448 262.639 246.475C262.589 246.598 262.546 246.73 262.502 246.862C262.405 247.158 262.307 247.454 262.139 247.656C261.49 248.436 260.618 248.132 260.35 247.036C260.211 246.466 260.095 245.887 259.98 245.307C259.82 244.505 259.66 243.703 259.438 242.929C259.346 242.61 259.27 242.284 259.195 241.958C258.973 241.005 258.752 240.051 258.13 239.248C257.683 238.67 257.409 237.873 257.137 237.079L257.137 237.079L257.136 237.079L257.136 237.078L257.136 237.077L257.136 237.077L257.136 237.076L257.135 237.076C257.03 236.768 256.924 236.46 256.809 236.167C256.111 234.394 254.96 233.234 253.627 232.298C253.265 232.044 252.904 231.764 252.589 231.426C251.891 230.677 251.407 231.085 250.983 231.848C250.281 233.108 249.117 233.572 248.035 232.846C246.376 231.734 245.022 230.273 244.571 227.771C244.488 227.308 243.947 226.899 243.55 226.616C242.355 225.766 241.154 224.931 239.953 224.097L239.953 224.097L239.952 224.097L239.952 224.097L239.952 224.096L239.952 224.096L239.952 224.096L239.952 224.096C237.96 222.712 235.968 221.328 234.009 219.873C231.565 218.057 229.184 216.103 226.805 214.15L226.805 214.15L226.087 213.561C222.334 210.483 218.594 207.378 214.855 204.273L214.854 204.272C214.125 203.667 213.395 203.061 212.666 202.456C211.847 201.776 211.033 201.085 210.219 200.394L210.217 200.393C209.649 199.91 209.081 199.428 208.511 198.949C208.283 198.758 208.042 198.586 207.795 198.438C207.058 197.998 206.841 198.157 206.782 199.155C206.782 199.166 206.781 199.176 206.781 199.186C206.781 199.199 206.781 199.212 206.782 199.225C206.782 199.239 206.782 199.253 206.782 199.267L206.735 203.446V203.446V203.447V203.448V203.449V203.45V203.451V203.451C206.692 207.316 206.65 211.182 206.604 215.047C206.59 216.279 207.101 217.224 207.605 218.155C207.707 218.343 207.809 218.531 207.906 218.721C209.683 222.196 211.496 225.642 213.328 229.071C213.83 230.011 214.35 230.935 214.87 231.859L214.87 231.86L214.87 231.86L214.87 231.861L214.871 231.861L214.871 231.862L214.871 231.863L214.872 231.864C215.658 233.261 216.444 234.657 217.166 236.105C217.532 236.839 217.751 237.69 217.97 238.542L217.97 238.542L217.97 238.542L217.97 238.542L217.97 238.542L217.97 238.542L217.97 238.542L217.97 238.543C218.066 238.917 218.162 239.29 218.271 239.654C218.32 239.82 218.372 239.985 218.425 240.151L218.425 240.151C218.565 240.596 218.706 241.041 218.794 241.502C219.508 245.23 219.186 248.929 218.481 252.588C218.434 252.833 218.387 253.078 218.34 253.323C217.902 255.609 217.462 257.905 216.823 260.102C216.31 261.864 215.671 263.566 215.031 265.269L215.031 265.27C214.722 266.09 214.414 266.911 214.12 267.738C213.607 269.182 213.11 270.636 212.619 272.093C211.788 274.564 210.96 277.036 210.142 279.514C209.845 280.413 209.558 281.319 209.271 282.224L209.271 282.224C208.697 284.036 208.122 285.848 207.469 287.613C206.528 290.155 205.483 292.637 204.438 295.116L204.438 295.117C204.288 295.473 204.138 295.829 203.988 296.185C203.336 297.738 202.667 299.281 201.998 300.823C201.35 302.316 200.703 303.809 200.07 305.312C199.493 306.682 198.932 308.063 198.37 309.444L198.369 309.447C197.769 310.922 197.169 312.398 196.55 313.861C195.671 315.939 194.749 317.991 193.8 320.02C193.011 321.709 193.239 322.496 194.153 324.052C195.143 325.738 196.682 326.302 198.209 326.742C202.396 327.95 206.592 329.108 210.787 330.266L211 330.325C211.423 330.442 211.851 330.529 212.278 330.616L212.279 330.616L212.279 330.616L212.279 330.616L212.28 330.616L212.28 330.616L212.28 330.616L212.281 330.616C212.761 330.714 213.241 330.812 213.714 330.951C216.078 331.65 217.264 333.845 217.896 336.569C218.301 338.312 218.42 340.183 217.321 341.631C216.906 342.178 216.148 342.584 215.544 342.586C207.772 342.62 199.999 342.625 192.227 342.63C187.332 342.634 182.437 342.637 177.542 342.648C176.971 342.649 176.93 342.432 176.887 341.799C176.843 341.155 176.752 340.511 176.661 339.869C176.528 338.926 176.395 337.985 176.411 337.046C176.49 332.533 177.743 328.492 179.933 324.944C180.091 324.688 180.348 324.518 180.601 324.351C180.882 324.165 181.16 323.981 181.292 323.686C181.931 322.259 182.479 320.742 182.898 319.19C183.571 316.704 184.239 314.194 184.671 311.631C184.869 310.453 185.155 309.312 185.441 308.169L185.441 308.168C185.798 306.748 186.154 305.326 186.343 303.831C186.541 302.253 187.061 300.732 187.577 299.221L187.578 299.221C187.738 298.752 187.898 298.284 188.048 297.815C188.559 296.216 189.088 294.625 189.616 293.034L189.617 293.033C190.438 290.562 191.259 288.09 192.017 285.589C192.557 283.805 193.005 281.977 193.453 280.149C193.708 279.105 193.964 278.062 194.237 277.026C194.814 274.835 195.401 272.645 196.062 270.493C196.211 270.01 196.128 270.001 195.919 269.981L195.918 269.981C195.902 269.979 195.884 269.977 195.866 269.975L195.838 269.972L195.817 269.969C195.808 269.968 195.799 269.966 195.79 269.965C192.999 269.496 190.249 269.537 187.647 271.106C187.076 271.45 186.675 271.378 186.297 270.78C185.911 270.169 186.112 269.723 186.453 269.162C188.488 265.816 189.751 262.006 190.72 257.986C190.822 257.565 190.926 257.145 191.031 256.725C191.661 254.192 192.288 251.667 192.271 248.975C192.258 246.936 191.86 245.106 190.75 243.4C190.506 243.026 190.282 242.633 190.059 242.242C189.392 241.074 188.736 239.923 187.593 239.321C187.015 239.017 186.445 238.689 185.875 238.36L185.874 238.36L185.874 238.36L185.873 238.36L185.873 238.36L185.873 238.359L185.872 238.359L185.872 238.359L185.871 238.359L185.871 238.358L185.87 238.358L185.87 238.358L185.869 238.357L185.869 238.357L185.868 238.357C185.276 238.016 184.683 237.674 184.081 237.36C183.623 237.12 183.165 236.878 182.707 236.637C180.904 235.684 179.099 234.731 177.259 233.907C176.142 233.407 174.984 233.049 173.827 232.691L173.826 232.691C173.3 232.529 172.775 232.366 172.252 232.19C172.226 232.181 172.199 232.172 172.173 232.162C172.144 232.152 172.116 232.141 172.087 232.13C172.041 232.112 171.994 232.093 171.947 232.074L171.947 232.074L171.947 232.074L171.947 232.074C171.866 232.041 171.785 232.009 171.703 231.979C170.514 231.55 169.475 231.625 168.667 233.074C168.313 233.71 167.826 234.227 167.316 234.77C167.215 234.878 167.113 234.987 167.01 235.097C165.089 237.49 163.253 239.88 161.424 242.277ZM205.024 201.661C205.082 201.129 205.166 200.601 205.249 200.073C205.352 199.426 205.454 198.778 205.51 198.125L205.525 197.942C205.645 196.54 205.767 195.118 205.687 193.724C205.646 193.002 205.494 192.292 205.342 191.581L205.342 191.581C205.218 191.005 205.094 190.427 205.029 189.842C204.688 186.763 204.38 183.676 204.143 180.582C203.937 177.892 203.8 175.193 203.662 172.495L203.625 171.763L203.605 171.361C203.466 168.668 203.337 165.973 203.254 163.276C203.174 160.69 203.134 158.102 203.095 155.515L203.078 154.427C203.075 154.264 203.119 154.101 203.164 153.937L203.164 153.937C203.192 153.832 203.22 153.727 203.237 153.622C203.246 153.56 203.257 153.498 203.268 153.436C203.279 153.378 203.29 153.321 203.3 153.264L203.301 153.263L203.301 153.263L203.301 153.262L203.301 153.262L203.301 153.261C203.364 152.928 203.427 152.593 203.404 152.269C203.378 151.913 203.315 151.558 203.251 151.204C203.166 150.724 203.08 150.246 203.09 149.769C203.153 146.609 203.266 143.45 203.379 140.291C203.395 139.824 203.412 139.356 203.428 138.889C203.453 138.21 203.522 137.531 203.604 136.859C203.835 134.958 204.076 133.059 204.317 131.16L204.485 129.833C204.505 129.679 204.531 129.526 204.557 129.373C204.569 129.302 204.581 129.231 204.593 129.159C204.6 129.239 204.609 129.318 204.618 129.397C204.637 129.566 204.656 129.736 204.658 129.906C204.714 133.463 204.766 137.02 204.818 140.576V140.577V140.577V140.578V140.578V140.578V140.579V140.579L204.838 141.884C204.855 143.075 204.873 144.265 204.891 145.456C204.934 148.295 204.977 151.135 205.013 153.974C205.036 155.853 205.054 157.732 205.073 159.611C205.106 163.029 205.139 166.447 205.203 169.863C205.251 172.412 205.379 174.961 205.558 177.501C205.69 179.363 205.881 181.22 206.073 183.076L206.073 183.077C206.134 183.666 206.195 184.254 206.254 184.843C206.336 185.667 206.426 186.489 206.516 187.311L206.516 187.312C206.672 188.749 206.829 190.186 206.946 191.628C207.095 193.46 207.794 194.944 208.799 196.119C209.533 196.977 210.36 197.707 211.186 198.438L211.187 198.438C211.513 198.726 211.839 199.014 212.16 199.31C212.83 199.929 213.497 200.553 214.164 201.178L214.164 201.178L214.165 201.178L214.165 201.178L214.165 201.178L214.165 201.178L214.165 201.179L214.165 201.179C215.839 202.745 217.512 204.311 219.232 205.791C220.769 207.114 222.351 208.353 223.933 209.593C224.699 210.193 225.466 210.793 226.227 211.403C226.958 211.989 227.687 212.581 228.415 213.172C229.71 214.224 231.004 215.275 232.315 216.294L232.563 216.487C234.964 218.355 237.367 220.224 239.826 221.966C240.995 222.794 242.234 223.466 243.471 224.137L243.471 224.137C243.789 224.309 244.106 224.481 244.421 224.656C244.605 224.757 245.028 224.641 245.115 224.457C245.321 224.019 245.455 223.525 245.587 223.034C245.614 222.936 245.641 222.838 245.668 222.74C246.185 220.878 246.839 219.139 247.955 217.689C248.797 216.595 248.678 216.266 247.508 215.644C247.445 215.611 247.382 215.577 247.319 215.544L247.315 215.542L247.312 215.54C246.823 215.283 246.33 215.023 245.886 214.669C245.061 214.012 244.259 213.299 243.489 212.543C242.807 211.875 242.124 211.209 241.441 210.543L241.441 210.543L241.44 210.543L241.433 210.535L241.432 210.535L241.432 210.534L241.432 210.534L241.431 210.534L241.431 210.533L241.431 210.533L241.43 210.533C239.118 208.279 236.806 206.025 234.558 203.674C232.464 201.484 230.475 199.124 228.526 196.727C228.255 196.393 227.981 196.063 227.707 195.732L227.706 195.731C226.048 193.729 224.383 191.719 223.331 189.064C223.187 188.7 223.021 188.35 222.854 187.999C222.37 186.981 221.886 185.964 221.958 184.627C222.001 183.809 221.915 182.979 221.828 182.151C221.797 181.851 221.765 181.551 221.74 181.253C221.672 180.445 221.592 179.638 221.511 178.83C221.346 177.181 221.182 175.531 221.126 173.876C221.051 171.64 221.068 169.4 221.085 167.159C221.092 166.194 221.1 165.23 221.1 164.266C221.1 164.039 221.095 163.812 221.089 163.585V163.585C221.078 163.089 221.066 162.593 221.109 162.105C221.32 159.729 221.533 157.351 221.817 154.988C221.872 154.526 221.926 154.064 221.98 153.601L221.98 153.601C222.244 151.337 222.508 149.069 222.945 146.858C223.325 144.93 223.793 143.03 224.26 141.13L224.26 141.13L224.26 141.13L224.26 141.129L224.26 141.129L224.26 141.129L224.26 141.129L224.26 141.129L224.261 141.128L224.261 141.128L224.261 141.128L224.261 141.127L224.261 141.127L224.261 141.126L224.261 141.126C224.631 139.623 225.001 138.12 225.328 136.604C225.563 135.511 225.822 134.427 226.081 133.343C226.73 130.628 227.379 127.913 227.654 125.073C227.714 124.454 227.838 123.838 227.962 123.224C228.144 122.32 228.325 121.421 228.3 120.526C228.208 117.293 227.495 114.177 226.777 111.067C225.704 106.421 223.844 102.546 220.625 99.788C218.768 98.1968 216.822 97.0316 214.517 97.406C213.681 97.5418 212.854 97.7595 212.027 97.9772C211.629 98.0819 211.231 98.1867 210.832 98.2823C208.567 98.8249 206.564 100.087 204.759 101.861C203.703 102.899 202.671 103.982 201.668 105.102C200.665 106.222 199.663 107.354 198.749 108.586C197.899 109.732 197.109 110.948 196.319 112.164L196.318 112.165L196.311 112.176C196.141 112.437 195.972 112.698 195.802 112.958C194.444 115.036 193.09 117.117 191.761 119.225C191.18 120.146 190.611 121.079 190.042 122.013L190.042 122.014L190.041 122.016L190.039 122.018C189.178 123.432 188.316 124.845 187.414 126.216C185.778 128.702 184.08 131.125 182.357 133.516C179.99 136.801 177.581 140.038 175.172 143.275C174.966 143.551 174.73 143.792 174.494 144.032C174.211 144.32 173.928 144.608 173.701 144.955C171.957 147.613 170.314 150.386 169.149 153.518C168.074 156.406 167.038 159.317 166.002 162.228L166.002 162.229C165.071 164.845 164.14 167.461 163.18 170.06C161.625 174.274 159.913 178.378 157.847 182.253L157.696 182.538C156.589 184.616 155.482 186.695 153.922 188.21C151.889 190.184 149.773 192.021 147.657 193.858L147.65 193.864C147.1 194.341 146.55 194.819 146.002 195.299C144.217 196.861 142.805 198.831 142.11 201.427C141.258 204.614 141.694 207.779 142.884 210.684C144.349 214.26 146.668 216.993 149.036 219.597C151.663 222.487 154.717 224.559 158.011 225.892C162.246 227.604 166.504 229.267 170.983 229.752C172.154 229.879 173.321 230.073 174.488 230.266L174.488 230.266L174.488 230.267L174.489 230.267L174.489 230.267L174.489 230.267L174.49 230.267L174.49 230.267C175.79 230.483 177.09 230.699 178.396 230.822C181.286 231.094 184.188 231.246 187.085 231.266C188.389 231.275 189.692 231.161 190.996 231.046C191.823 230.974 192.651 230.901 193.479 230.86C195.729 230.748 197.861 230.001 199.961 229.059C201.372 228.425 202.678 227.554 203.194 225.63C203.494 224.51 203.643 223.311 203.766 222.132L203.798 221.828C204.058 219.338 204.319 216.845 204.467 214.343C204.604 212.039 204.675 209.727 204.749 207.331C204.777 206.428 204.805 205.514 204.838 204.583C204.856 204.284 204.87 203.984 204.885 203.685V203.685V203.684V203.684V203.684V203.684V203.684C204.918 203.007 204.951 202.331 205.024 201.661ZM130.166 269.522C130.26 269.63 130.476 269.699 130.581 269.638C131.064 269.361 131.554 269.099 132.045 268.838L132.046 268.838L132.046 268.837L132.046 268.837L132.047 268.837L132.047 268.837L132.048 268.837L132.048 268.836L132.048 268.836C133.247 268.198 134.447 267.558 135.527 266.684C137.456 265.124 139.338 263.471 141.22 261.819C142.698 260.522 144.175 259.225 145.675 257.972C148.946 255.24 151.814 251.913 154.683 248.586C155.242 247.937 155.8 247.289 156.362 246.645C157.234 245.646 158.055 244.573 158.875 243.502L159.125 243.175C159.219 243.052 159.313 242.93 159.407 242.807C160.383 241.54 161.35 240.261 162.316 238.982L162.326 238.969L162.33 238.965L162.333 238.96C162.747 238.413 163.161 237.866 163.575 237.319C163.754 237.084 163.933 236.849 164.111 236.614L164.481 236.129C165.577 234.69 166.674 233.25 167.737 231.772C167.862 231.597 167.705 230.727 167.562 230.673C166.959 230.442 166.346 230.254 165.733 230.066L165.733 230.066C164.955 229.827 164.177 229.588 163.423 229.264L163.039 229.099L163.039 229.099L163.038 229.099L163.038 229.098L163.038 229.098L163.038 229.098L163.038 229.098L163.038 229.098C159.916 227.756 156.789 226.412 153.734 224.852C150.936 223.422 148.344 221.46 146.026 218.969C145.991 218.931 145.824 218.982 145.806 219.037C145.137 221.079 143.892 222.47 142.642 223.866C142.357 224.184 142.071 224.503 141.793 224.83C140.48 226.368 139.178 227.945 138.028 229.671C137.285 230.787 136.653 232.021 136.021 233.255C135.789 233.708 135.556 234.162 135.319 234.609C135.05 235.115 134.767 235.612 134.483 236.11L134.483 236.11C133.787 237.331 133.09 238.553 132.613 239.898C131.549 242.9 129.899 245.291 128.177 247.621C126.484 249.911 124.177 250.764 121.899 251.606C121.688 251.684 121.476 251.763 121.265 251.842C120.428 252.157 119.567 252.368 118.706 252.579L118.706 252.579L118.705 252.579L118.705 252.58L118.704 252.58L118.703 252.58L118.702 252.58L118.702 252.58L118.701 252.581L118.7 252.581C118.23 252.696 117.759 252.812 117.292 252.944C117.173 252.978 117.066 253.079 116.959 253.18C116.91 253.227 116.86 253.274 116.81 253.314C116.865 253.397 116.921 253.504 116.977 253.611C117.099 253.842 117.22 254.073 117.328 254.063C118.428 253.964 119.249 254.678 120.057 255.38L120.057 255.38L120.057 255.38L120.057 255.38L120.057 255.38L120.057 255.38L120.057 255.38L120.057 255.38C120.272 255.567 120.486 255.753 120.705 255.923C121.769 256.75 122.815 257.642 123.435 259.183C123.837 260.182 124.378 261.095 124.918 262.005L124.918 262.005L124.918 262.005L124.918 262.005L124.918 262.006C125.083 262.284 125.249 262.563 125.409 262.844C126.073 264 126.766 265.129 127.521 266.359L127.681 266.62C127.869 266.841 128.057 267.062 128.245 267.284C128.882 268.034 129.519 268.785 130.166 269.522ZM184.464 234.882C185.137 235.334 185.854 235.679 186.572 236.024C187.985 236.703 189.399 237.382 190.478 238.887C190.806 239.344 191.183 239.742 191.561 240.141L191.561 240.142L191.561 240.142L191.562 240.142C191.807 240.401 192.052 240.661 192.284 240.936C193.053 241.849 193.318 243.068 193.583 244.283L193.583 244.285C193.622 244.461 193.66 244.637 193.7 244.812C194.426 248.001 194.261 251.302 193.624 254.36L193.501 254.953C192.652 259.04 191.79 263.187 189.987 266.855C189.778 267.28 189.668 267.508 190.243 267.529C191.79 267.585 193.336 267.658 194.883 267.731H194.883H194.883H194.883H194.883H194.883H194.884H194.884C196.587 267.812 198.29 267.892 199.993 267.95C201.062 267.986 202.132 267.977 203.201 267.969C203.939 267.963 204.676 267.957 205.413 267.965C207.343 267.988 209.219 267.636 210.976 266.602C211.046 266.561 211.118 266.519 211.191 266.477C211.791 266.131 212.471 265.739 212.742 265.117C213.432 263.532 213.921 261.787 214.367 260.056C215.019 257.523 215.664 254.973 216.119 252.376C216.507 250.158 216.703 247.87 216.825 245.6C216.861 244.917 216.77 244.226 216.677 243.533V243.533V243.533V243.532V243.532V243.532V243.532V243.532L216.677 243.532C216.604 242.98 216.531 242.428 216.521 241.877C216.485 239.715 215.674 237.955 214.863 236.195C214.816 236.092 214.768 235.989 214.721 235.886C214.532 235.474 214.29 235.102 214.047 234.73C213.858 234.439 213.669 234.148 213.504 233.837C212.201 231.378 210.905 228.914 209.608 226.449C208.692 224.709 207.776 222.969 206.858 221.23C206.77 221.063 206.656 220.918 206.542 220.772C206.489 220.705 206.436 220.637 206.386 220.567C206.335 220.666 206.275 220.762 206.215 220.857C206.084 221.067 205.954 221.277 205.915 221.512C205.826 222.055 205.767 222.606 205.708 223.158C205.658 223.627 205.608 224.096 205.54 224.561C205.14 227.257 204.118 229.328 202.107 230.661C199.333 232.498 196.354 233.282 193.308 233.724C191.552 233.979 189.763 234.02 187.995 233.947C186.932 233.904 185.872 233.738 184.811 233.572C184.237 233.482 183.663 233.393 183.088 233.322C182.933 233.303 182.772 233.362 182.612 233.421C182.537 233.449 182.463 233.476 182.389 233.495C182.434 233.542 182.479 233.588 182.524 233.635L182.525 233.635L182.525 233.635L182.525 233.636L182.526 233.636L182.526 233.637L182.527 233.637C182.639 233.753 182.752 233.87 182.869 233.977C182.894 234 182.922 234.017 182.957 234.037C183.012 234.07 183.083 234.113 183.184 234.204C183.319 234.275 183.456 234.341 183.593 234.407C183.889 234.551 184.186 234.695 184.464 234.882ZM221.124 63.2589C220.003 65.329 219.327 67.6895 218.985 70.171C218.638 72.6925 218.589 75.2425 219.175 77.7038C219.52 79.157 219.911 80.5933 220.302 82.0294L220.303 82.0304C220.755 83.6923 221.208 85.3539 221.589 87.0414C221.825 88.0836 222.359 88.5715 222.949 88.8339C225.733 90.0723 228.758 88.5664 230.487 85.334C230.956 84.4566 230.686 84.0965 230.209 83.4831C229.563 82.6528 228.998 81.6911 228.517 80.694C227.8 79.2057 228.103 77.6884 228.925 76.4864C229.748 75.2836 230.982 75.0163 232.132 75.5202C233.444 76.0961 234.389 77.3637 235.063 78.9161C235.094 78.9888 235.117 79.0678 235.139 79.1467C235.15 79.1834 235.161 79.2201 235.172 79.2562C235.179 79.2364 235.187 79.2167 235.195 79.1971C235.212 79.155 235.229 79.1129 235.24 79.0686C235.339 78.6854 235.435 78.2999 235.531 77.9142C236.034 75.8901 236.539 73.8607 237.555 72.1338C238.348 70.7877 239.201 69.4453 240.208 68.3709C240.96 67.5677 241.889 67.0088 242.8 66.4605L243.012 66.3333L243.094 66.2832L243.165 66.2404L243.199 66.2199C243.51 66.0301 243.82 65.8364 244.131 65.6425C245.436 64.8287 246.747 64.0117 248.121 63.468C248.352 63.3767 248.468 63.3317 248.523 63.3108L248.557 63.2973C248.562 63.2954 248.564 63.2946 248.564 63.2944C248.564 63.2943 248.561 63.2951 248.556 63.2964C248.484 63.3167 248.018 63.4478 252.562 61.3788C258.904 58.4903 255.641 49.3907 253.763 47.3889C253.623 47.2398 253.401 47.0797 253.251 47.1208C253.116 47.1577 252.944 47.4551 252.93 47.6536C252.789 49.6428 250.48 52.7297 244.996 52.2504C241.243 51.9224 241.161 51.9412 240.982 51.9829C240.899 52.0021 240.795 52.0262 240.301 52.0233C239.119 52.0164 235.025 52.4978 234.197 52.7933C233.897 52.9007 233.503 53.0044 233.041 53.1265C230.836 53.7083 227.054 54.7062 224.193 58.4903C223.876 58.9765 223.551 59.4549 223.225 59.9334C222.49 61.0124 221.756 62.0913 221.124 63.2589ZM236.123 83.0092C236.123 84.0153 235.963 85.0052 235.804 85.9949C235.727 86.4707 235.65 86.9465 235.591 87.424C235.582 87.4994 235.551 87.5704 235.52 87.6415C235.512 87.6586 235.505 87.6758 235.497 87.6929C235.491 87.7089 235.484 87.7249 235.478 87.741C235.472 87.7087 235.465 87.6765 235.458 87.6443C235.443 87.5757 235.429 87.5071 235.418 87.4374C235.346 86.9502 235.278 86.4615 235.21 85.9728C235.057 84.8671 234.904 83.7614 234.695 82.6729C234.444 81.3681 234.165 80.0383 233.702 78.8413C233.167 77.4573 230.923 76.8043 229.82 77.5303C229.19 77.9443 228.888 78.9366 229.297 79.6575C229.683 80.3395 230.156 81.0366 230.72 81.4425C231.645 82.1089 231.946 83.2202 232.021 84.3097C232.162 86.3582 230.46 89.2388 228.806 89.7568C227.302 90.2278 225.769 90.5554 224.237 90.8827C223.876 90.96 223.514 91.0373 223.153 91.1164C223.116 91.1246 223.079 91.1323 223.042 91.1399C222.56 91.2404 222.177 91.3204 222.329 92.2122C222.744 94.633 222.88 97.0719 222.532 99.5343C222.511 99.6839 222.726 99.9184 222.863 100.066C223.038 100.256 223.223 100.434 223.407 100.612C223.745 100.939 224.084 101.266 224.363 101.66C224.823 102.307 225.251 102.989 225.68 103.671L225.68 103.671L225.68 103.671L225.68 103.672L225.681 103.673C225.975 104.141 226.27 104.61 226.575 105.068C226.654 105.188 226.974 105.237 227.051 105.145C227.442 104.674 227.822 104.189 228.203 103.704L228.203 103.704L228.203 103.703C228.649 103.135 229.095 102.567 229.556 102.021C230.673 100.701 231.817 99.4176 232.975 98.1564C233.125 97.993 233.332 97.913 233.538 97.8329C233.634 97.796 233.729 97.7591 233.819 97.714C233.805 97.7545 233.791 97.795 233.777 97.8357C233.754 97.9046 233.731 97.9737 233.708 98.0428C233.607 98.3431 233.507 98.6433 233.388 98.9315C233.368 98.9818 233.308 99.0021 233.245 99.0235C233.192 99.0419 233.135 99.0611 233.099 99.1006L233.071 99.1315L233.049 99.1554L233.044 99.1608L233.042 99.1625C232.819 99.4028 232.655 99.5795 233.151 99.8776C233.675 100.193 234.16 100.611 234.645 101.028L234.645 101.028C234.848 101.203 235.051 101.378 235.257 101.545C238.424 104.119 241.837 105.327 245.614 104.545C247.751 104.103 249.217 102.667 249.868 100.012C250.492 97.4688 250.233 96.7288 248.309 95.7067L248.222 95.6608L248.112 95.6029C247.097 95.0698 246.088 94.5404 245.822 92.9694C245.814 92.9197 245.813 92.8599 245.818 92.7943C245.856 92.2637 246.78 91.72 246.871 92.2442C247.077 93.4288 247.789 93.8381 248.539 94.2649C249.92 95.0499 250.089 94.94 250.089 93.15C250.089 90.8064 250.089 90.8064 251.717 90.0763C252.66 89.6535 252.812 89.2399 252.383 88.0833C251.736 86.3366 251.314 84.5572 251.493 82.5822C251.713 80.1484 251.897 77.7067 252.019 75.2622C252.097 73.6914 252.171 72.0839 251.993 70.5396C251.879 69.5508 251.599 68.5922 251.32 67.634L251.319 67.6328C251.199 67.221 251.079 66.8092 250.972 66.3951C250.721 65.4212 250.114 65.0299 249.324 65.3901C248.829 65.6151 248.332 65.832 247.834 66.049C246.449 66.6532 245.064 67.2577 243.743 68.0372C242.353 68.8577 240.946 69.8755 239.864 71.2166C238.893 72.4215 236.123 78.4912 236.123 83.0092ZM121.952 272.658C122.538 272.492 123.124 272.328 123.711 272.164L123.715 272.163C124.989 271.807 126.263 271.451 127.535 271.08C127.718 271.027 127.889 270.907 128.06 270.788L128.06 270.788C128.14 270.733 128.219 270.677 128.299 270.629C128.231 270.578 128.163 270.53 128.094 270.481C127.934 270.368 127.775 270.255 127.629 270.12C127.467 269.97 127.33 269.774 127.196 269.582L127.189 269.571C126.807 269.026 126.42 268.485 126.033 267.945L126.033 267.945C125.09 266.628 124.146 265.311 123.285 263.913C122.433 262.531 121.756 260.964 121.088 259.419L121.071 259.38C120.742 258.619 120.368 258.297 119.735 258.576C117.042 259.764 114.255 260.412 111.467 261.06C110.013 261.398 108.559 261.736 107.118 262.151C104.757 262.83 92.8711 265.412 91.8361 265.506C91.332 265.551 90.8279 265.616 90.324 265.68C89.3444 265.806 88.3652 265.932 87.3869 265.918C84.8868 265.882 82.4361 266.223 79.9875 266.823C79.2155 267.012 78.4324 267.132 77.6495 267.252C76.7556 267.388 75.862 267.525 74.9855 267.765C72.1632 268.537 71.2177 271.58 71.9448 274.553C72.0844 275.124 72.5832 275.768 73.0309 275.968C75.0725 276.88 77.2097 277.117 79.37 277.138C80.4825 277.149 81.5947 277.214 82.7069 277.279L82.7076 277.279H82.7079H82.7082H82.7085H82.7088H82.709H82.7093C83.1332 277.304 83.557 277.329 83.9808 277.351C85.5746 277.433 87.1682 277.517 88.7619 277.601C90.0064 277.666 91.251 277.732 92.4955 277.796C92.5837 277.801 92.6721 277.799 92.7605 277.797C92.849 277.796 92.9374 277.794 93.0257 277.799C93.4616 277.821 93.8983 277.859 94.3349 277.896C95.2902 277.979 96.2454 278.061 97.193 277.987C98.6797 277.871 100.161 277.649 101.643 277.427C102.331 277.324 103.019 277.221 103.707 277.129C104.129 277.072 104.552 277.026 104.975 276.979L104.975 276.979C105.743 276.895 106.511 276.811 107.271 276.666L107.654 276.592C109.596 276.22 111.541 275.847 113.457 275.314C114.944 274.899 116.421 274.425 117.93 273.941L117.931 273.941L117.931 273.941L117.932 273.941L117.933 273.94L117.934 273.94L117.937 273.939C119.041 273.585 120.162 273.225 121.317 272.879C121.343 272.87 121.369 272.861 121.395 272.851L121.46 272.827L121.517 272.806C121.661 272.752 121.805 272.699 121.952 272.658ZM189.308 324.35C190.222 322.691 191.088 320.987 191.927 319.265C192.689 317.699 193.402 316.095 194.115 314.492C194.753 313.057 195.414 311.64 196.076 310.222L196.077 310.22C197.614 306.93 199.151 303.639 200.385 300.128C201.096 298.106 201.919 296.147 202.742 294.188L202.742 294.188L202.742 294.187L202.742 294.187L202.743 294.186L202.743 294.186L202.743 294.185C203.135 293.252 203.527 292.319 203.907 291.379C204.086 290.935 204.269 290.494 204.452 290.052C204.953 288.842 205.453 287.631 205.883 286.382C206.208 285.437 206.493 284.468 206.778 283.499C207.216 282.01 207.653 280.523 208.235 279.13C209.169 276.891 209.788 274.527 210.408 272.161C210.609 271.393 210.811 270.625 211.023 269.861C211.055 269.742 211.077 269.618 211.098 269.494C211.107 269.437 211.117 269.379 211.128 269.322L211.092 269.331L211.064 269.337C211.035 269.344 211.006 269.35 210.977 269.356L210.977 269.356C210.867 269.38 210.757 269.403 210.651 269.443C210.438 269.523 210.226 269.62 210.014 269.718C209.575 269.92 209.136 270.121 208.687 270.166C207.01 270.333 205.323 270.404 203.64 270.404C202.599 270.403 201.558 270.351 200.518 270.299H200.518H200.517H200.517H200.517H200.516H200.516H200.516L200.514 270.299C199.843 270.266 199.172 270.233 198.501 270.213C198.377 270.209 198.181 270.407 198.131 270.567C198.071 270.759 198.011 270.951 197.951 271.142L197.946 271.156C197.526 272.496 197.105 273.836 196.738 275.199C195.823 278.594 194.935 282.002 194.058 285.413C192.945 289.744 191.575 293.924 190.065 298.072C188.665 301.917 187.622 306.011 186.959 310.226C186.65 312.193 186.192 314.125 185.735 316.054L185.728 316.083C185.656 316.387 185.584 316.692 185.512 316.997C185.477 317.148 185.442 317.299 185.407 317.449C185.068 318.909 184.693 320.355 184.319 321.802C184.184 322.324 184.049 322.847 183.916 323.37C183.61 324.568 183.879 325.687 184.625 325.833C185.456 325.995 186.315 325.936 187.25 325.862C188.099 325.713 188.828 325.22 189.308 324.35ZM67.1231 283.151C68.0458 281.235 68.9963 279.5 70.8721 278.982C71.5685 278.79 71.607 278.331 71.1454 277.595C71.0443 277.434 70.9375 277.273 70.8302 277.112L70.8299 277.111C70.4442 276.531 70.0512 275.939 69.8848 275.267C69.7049 274.54 69.74 273.719 69.7745 272.912C69.7834 272.704 69.7922 272.497 69.7973 272.293C69.8584 269.855 70.4037 267.775 72.3155 266.59C72.8826 266.239 73.2232 265.71 72.6543 264.673C71.3722 262.338 69.673 260.685 67.7996 259.253C67.0653 258.691 66.3891 259.025 66.0972 260.005C65.9703 260.431 65.8419 260.856 65.7136 261.282C65.3078 262.626 64.902 263.971 64.5422 265.336C64.1472 266.833 63.7714 268.339 63.3957 269.845L63.3956 269.845L63.3956 269.845L63.3955 269.845L63.3955 269.845L63.3954 269.845L63.3954 269.846L63.3953 269.846C62.9986 271.435 62.6019 273.025 62.1825 274.605C61.8362 275.91 61.5314 277.23 61.2265 278.55C60.6755 280.935 60.1242 283.322 59.3273 285.625C57.4923 290.929 56.0092 296.413 55.3073 302.176C55.2702 302.48 55.3219 303.003 55.4647 303.095C55.6818 303.235 56.0527 303.184 56.2902 303.037C56.6861 302.793 57.102 302.487 57.3793 302.069C58.2495 300.757 59.0589 299.381 59.8919 297.806C60.5817 296.412 61.2741 295.02 61.9665 293.629L61.9666 293.628C63.6991 290.146 65.4315 286.665 67.1231 283.151ZM197.014 328.324C196.847 328.27 196.679 328.219 196.511 328.167C194.974 327.695 193.448 327.226 192.557 325.22C192.137 324.274 191.77 324.346 191.346 325.385C190.978 326.286 190.523 327.077 189.797 327.547C189.411 327.797 189.002 327.999 188.592 328.182C186.557 329.093 184.578 329.208 182.794 327.367C181.924 326.469 181.641 326.551 180.962 327.669C179.864 329.476 179.302 331.583 178.742 333.681L178.694 333.861C178.09 336.12 178.418 336.592 180.32 336.592H214.431C214.441 336.592 214.451 336.592 214.461 336.593L214.481 336.593L214.495 336.594L214.513 336.595C214.53 336.596 214.546 336.598 214.563 336.599C214.592 336.602 214.621 336.605 214.651 336.608C214.822 336.627 214.993 336.645 215.128 336.566C215.303 336.464 215.537 335.982 215.508 335.941C215.383 335.768 215.26 335.585 215.137 335.401L215.137 335.4C214.762 334.838 214.382 334.268 213.899 333.959C212.937 333.342 211.858 332.977 210.802 332.639C206.905 331.393 202.997 330.203 198.916 328.991C198.719 328.922 198.523 328.851 198.326 328.78L198.324 328.779L198.322 328.778L198.32 328.778C197.886 328.621 197.451 328.464 197.014 328.324ZM263.723 245.559C263.763 245.748 263.942 245.889 264.12 246.031C264.203 246.096 264.285 246.161 264.354 246.231C264.399 246.151 264.455 246.071 264.511 245.992C264.632 245.819 264.754 245.647 264.761 245.467C264.77 245.227 264.783 244.986 264.796 244.744C264.845 243.802 264.896 242.85 264.748 241.955C264.46 240.205 264.007 238.483 263.493 236.814C263.365 236.397 263.518 236.198 263.662 236.011C263.766 235.876 263.866 235.747 263.85 235.546C263.942 235.621 264.041 235.689 264.14 235.758C264.366 235.914 264.592 236.071 264.74 236.305C264.871 236.512 264.932 236.787 264.993 237.065C265.029 237.23 265.065 237.396 265.117 237.55C265.19 237.765 265.262 237.981 265.334 238.197C265.686 239.249 266.038 240.302 266.445 241.318C266.517 241.499 266.734 241.587 266.952 241.675C267.052 241.715 267.152 241.756 267.238 241.805C267.274 241.702 267.321 241.6 267.368 241.497C267.47 241.272 267.571 241.048 267.57 240.824C267.562 239.812 267.498 238.797 267.403 237.791C267.388 237.633 267.375 237.472 267.362 237.311V237.311C267.302 236.586 267.24 235.847 267.019 235.204C266.344 233.248 265.628 231.298 264.767 229.466C264.222 228.307 263.482 227.222 262.66 226.364C261.93 225.601 261.09 225.003 260.253 224.408L260.253 224.408C260.029 224.249 259.805 224.089 259.584 223.927C258.234 222.939 256.865 221.989 255.493 221.049C255.479 221.039 255.464 221.029 255.449 221.018L255.449 221.018L255.448 221.017C255.288 220.902 255.099 220.766 254.93 221.231C254.613 222.107 254.276 222.971 253.939 223.836L253.939 223.836L253.939 223.836L253.939 223.837L253.939 223.837L253.939 223.837L253.939 223.838L253.939 223.838C253.413 225.188 252.887 226.538 252.437 227.928L252.429 227.949L252.407 228.017L252.406 228.021C252.229 228.551 251.916 229.488 252.873 230.006C253.901 230.562 254.91 231.361 255.721 232.33C258.104 235.182 259.179 238.993 260.247 242.778L260.331 243.074C260.536 243.802 260.684 244.557 260.831 245.312L260.831 245.312L260.831 245.312L260.831 245.312L260.831 245.312L260.831 245.312L260.831 245.313L260.831 245.313L260.831 245.313L260.831 245.314L260.831 245.314L260.831 245.315L260.832 245.315L260.832 245.315C260.901 245.673 260.971 246.03 261.047 246.385C261.088 246.574 261.139 246.76 261.185 246.947C261.235 246.901 261.293 246.859 261.351 246.817C261.477 246.726 261.603 246.636 261.647 246.502C262.097 245.137 262.232 243.764 261.897 242.28C261.63 241.101 261.534 239.853 261.439 238.624L261.431 238.512C261.419 238.362 261.585 238.19 261.751 238.017C261.827 237.938 261.904 237.858 261.963 237.781C262.003 237.847 262.049 237.912 262.095 237.976C262.196 238.115 262.297 238.255 262.332 238.417C262.408 238.762 262.479 239.109 262.55 239.461L262.55 239.461C262.681 240.103 262.815 240.764 262.993 241.47C263.054 241.827 263.114 242.184 263.174 242.542C263.342 243.552 263.511 244.563 263.723 245.559ZM252.852 222.756C252.979 222.369 253.13 221.999 253.282 221.628C253.65 220.731 254.018 219.832 254.038 218.701C254.057 217.665 253.908 217.11 253.246 216.6C252.546 216.06 251.748 215.735 251.124 216.356C249.708 217.766 248.401 219.405 247.643 221.503C247.166 222.824 246.822 224.224 246.479 225.622L246.479 225.622L246.479 225.622L246.479 225.622L246.479 225.622L246.479 225.622L246.479 225.623L246.479 225.623L246.478 225.624L246.478 225.625L246.478 225.626L246.477 225.627C246.36 226.105 246.243 226.583 246.12 227.057C246.05 227.328 246.083 227.666 246.129 227.958C246.403 229.703 247.434 230.566 248.582 231.298C249.188 231.684 249.636 231.492 249.908 230.736C250.093 230.221 250.276 229.704 250.461 229.183L250.462 229.18L250.462 229.179C250.848 228.089 251.242 226.979 251.68 225.821C251.801 225.508 251.925 225.198 252.05 224.887L252.05 224.886L252.051 224.885L252.051 224.883C252.332 224.182 252.614 223.48 252.852 222.756ZM53.365 301.565C53.9974 299.662 54.598 297.736 55.1045 295.775C55.4433 294.464 55.742 293.136 56.0407 291.809C56.3112 290.607 56.5818 289.404 56.882 288.214C57.3533 286.346 57.8476 284.487 58.3419 282.629L58.342 282.628L58.3422 282.628C58.8041 280.891 59.266 279.154 59.7092 277.409C60.539 274.142 61.3483 270.867 62.1577 267.592L62.1578 267.592C62.5214 266.12 62.8851 264.649 63.2506 263.178C63.3469 262.791 63.4445 262.404 63.5422 262.017L63.5423 262.017C63.8019 260.989 64.0614 259.961 64.2941 258.924C64.3287 258.77 64.2584 258.578 64.1882 258.387C64.1557 258.298 64.1233 258.209 64.1011 258.124C64.0293 258.184 63.9461 258.238 63.863 258.291C63.6832 258.407 63.5034 258.522 63.4377 258.704C62.8153 260.424 62.2072 262.156 61.6701 263.92C61.1758 265.545 60.7345 267.195 60.2934 268.845L60.2933 268.846L60.2921 268.85C60.2187 269.125 60.1453 269.399 60.0716 269.674C59.9895 269.98 59.9071 270.286 59.8247 270.591L59.8247 270.592C59.3617 272.31 58.8985 274.03 58.4863 275.768C58.0595 277.568 57.655 279.376 57.2505 281.184C56.9544 282.508 56.6582 283.832 56.3532 285.153C56.2414 285.637 56.1305 286.122 56.0197 286.607L56.0195 286.608L56.0195 286.608C55.5533 288.648 55.0869 290.689 54.5438 292.696C54.2055 293.946 53.8478 295.187 53.4888 296.434C52.9875 298.174 52.4836 299.923 52.026 301.718C52.6895 302.824 52.9433 302.834 53.365 301.565ZM203.247 340.728C203.649 340.693 204.05 340.656 204.452 340.618L204.455 340.618C205.34 340.535 206.225 340.453 207.111 340.398C208.281 340.326 209.451 340.262 210.621 340.197C212.169 340.112 213.716 340.026 215.263 339.924C215.385 339.916 215.501 339.762 215.617 339.609C215.671 339.537 215.725 339.466 215.779 339.409C215.733 339.373 215.687 339.334 215.641 339.295C215.534 339.204 215.428 339.113 215.311 339.063C215.219 339.023 215.115 339.033 215.01 339.043C214.964 339.047 214.917 339.051 214.872 339.051H179.73C179.675 339.051 179.614 339.042 179.553 339.033C179.419 339.014 179.285 338.994 179.212 339.069C178.959 339.326 178.733 339.654 178.58 340.011C178.548 340.086 178.853 340.538 179.042 340.591C179.565 340.738 180.108 340.829 180.643 340.83C188.148 340.844 195.653 340.84 203.247 340.728ZM253.889 344.177L253.887 344.178L253.886 344.178L253.885 344.179L253.884 344.179L253.883 344.18L253.883 344.18L253.882 344.181L253.881 344.181C251.194 345.515 248.523 346.842 245.887 348.273C244.085 349.252 242.28 349.402 240.404 349.332C240.244 349.326 240.085 349.281 239.927 349.236C239.756 349.187 239.586 349.138 239.416 349.139C239.278 349.139 239.141 349.235 239.003 349.331C238.942 349.374 238.88 349.417 238.818 349.451C238.826 349.467 238.834 349.484 238.842 349.5C238.852 349.521 238.861 349.541 238.87 349.562C238.883 349.591 238.896 349.62 238.909 349.649L238.909 349.65L238.909 349.65C238.974 349.801 239.039 349.951 239.135 350.058C239.406 350.365 239.688 350.679 240.008 350.89C242.44 352.498 243.845 356.889 242.986 360.183C242.564 361.801 242.053 363.518 241.199 364.777C240.504 365.801 239.292 366.477 238.212 366.831C236.504 367.391 234.723 367.408 233.001 366.62C231.496 365.931 230.416 364.655 229.619 362.932C227.683 358.743 228.478 355.11 230.537 351.728C230.807 351.285 231.243 351.005 231.683 350.723C231.928 350.565 232.175 350.407 232.394 350.219C232.55 350.086 232.671 349.888 232.792 349.689L232.792 349.689C232.847 349.599 232.902 349.509 232.96 349.424C232.863 349.394 232.766 349.358 232.67 349.322L232.669 349.322C232.448 349.24 232.226 349.157 232.002 349.145C231.848 349.137 231.692 349.188 231.536 349.238C231.391 349.285 231.246 349.332 231.101 349.332L225.614 349.336C213.21 349.346 200.807 349.355 188.404 349.331C185.408 349.325 182.412 349.268 179.416 349.212C177.653 349.179 175.889 349.145 174.126 349.122C172.823 349.105 171.52 349.11 170.217 349.114C169.624 349.116 169.031 349.118 168.438 349.118L168.362 349.118L168.235 349.118L168.055 349.117C167.701 349.114 167.347 349.111 166.994 349.129C166.92 349.132 166.848 349.196 166.776 349.259C166.743 349.288 166.71 349.318 166.677 349.341C166.709 349.369 166.74 349.398 166.772 349.427C166.84 349.49 166.908 349.553 166.979 349.609C167.276 349.842 167.588 350.057 167.9 350.272C168.57 350.734 169.24 351.196 169.765 351.844C173.362 356.276 172.202 365.036 166.821 366.792C162.467 368.212 158.62 366.384 157.328 359.855C156.531 355.831 158.661 351.032 161.883 349.774C162.023 349.72 162.143 349.587 162.263 349.455C162.319 349.393 162.375 349.331 162.433 349.278C162.389 349.247 162.345 349.211 162.3 349.173L162.256 349.134C162.128 349.023 162.001 348.913 161.874 348.912C157.626 348.891 153.646 347.331 149.742 345.466C144.498 342.962 139.399 340.041 134.679 336.186L134.589 336.112C133.716 335.401 132.817 334.668 132.509 333.181C131.932 330.397 133.047 328.251 135.105 327.545C137.296 326.794 139.398 327.585 141.467 328.423C145.053 329.875 148.636 331.338 152.219 332.801L152.222 332.802L152.225 332.803L152.228 332.804L152.231 332.805L152.233 332.807L152.236 332.808L152.239 332.809C154.235 333.624 156.23 334.438 158.226 335.251L158.486 335.357L158.488 335.358C159.571 335.799 160.654 336.24 161.745 336.642C162.146 336.79 162.577 336.865 162.995 336.867C164.789 336.875 166.583 336.876 168.377 336.877H168.399C170.192 336.878 171.986 336.879 173.78 336.888C174.046 336.889 174.503 336.983 174.541 337.153C174.625 337.519 174.624 337.916 174.623 338.313C174.623 338.468 174.622 338.623 174.627 338.776C174.601 338.765 174.574 338.75 174.548 338.734C174.49 338.701 174.432 338.668 174.377 338.674C174.174 338.698 173.972 338.729 173.769 338.761C173.467 338.807 173.165 338.854 172.863 338.874C171.812 338.943 170.761 339.004 169.711 339.066C168.305 339.149 166.9 339.231 165.496 339.33C163.011 339.506 160.668 338.622 158.345 337.746L158.324 337.738C156.522 337.058 154.742 336.282 152.962 335.507L152.961 335.506L152.96 335.506L152.959 335.506L152.958 335.505L152.958 335.505L152.957 335.505L152.956 335.505C151.953 335.067 150.949 334.63 149.941 334.21C148.678 333.684 147.412 333.17 146.147 332.657L146.146 332.656L146.145 332.656L146.144 332.656L146.143 332.655L146.143 332.655L146.142 332.655L146.141 332.654C144.679 332.061 143.218 331.468 141.761 330.856C141.394 330.701 141.035 330.495 140.677 330.289C140.107 329.96 139.539 329.633 138.943 329.522C137.847 329.316 136.674 329.427 135.581 329.7C135.154 329.806 134.675 330.664 134.541 331.289C134.361 332.124 134.483 332.946 135.256 333.567C138.846 336.449 142.63 338.838 146.516 341.006C150.046 342.975 153.69 344.51 157.413 345.762C158.01 345.963 158.656 345.979 159.281 345.994C160.707 346.028 162.134 346.05 163.561 346.072C165.97 346.11 168.379 346.148 170.788 346.241C173.454 346.343 176.119 346.507 178.785 346.67C180.024 346.746 181.263 346.822 182.502 346.892C183.6 346.954 184.698 347.014 185.796 347.074C187.389 347.161 188.983 347.248 190.577 347.341C190.92 347.361 191.264 347.397 191.608 347.433H191.608H191.609H191.609H191.609H191.609H191.61H191.61C192.214 347.497 192.818 347.56 193.42 347.536C193.949 347.515 194.475 347.422 195.001 347.33C195.457 347.25 195.912 347.17 196.369 347.136C196.678 347.113 196.99 347.171 197.303 347.229C197.556 347.276 197.81 347.323 198.063 347.327C198.368 347.332 198.672 347.339 198.977 347.345H198.978H198.979C200.383 347.374 201.789 347.402 203.189 347.318C204.399 347.245 205.607 347.125 206.815 347.004C207.979 346.888 209.143 346.772 210.309 346.699C210.655 346.677 211.005 346.786 211.356 346.895C211.664 346.99 211.974 347.087 212.283 347.095C214.404 347.15 216.526 347.144 218.647 347.107C220.715 347.071 222.784 347.002 224.85 346.877C225.259 346.853 225.671 346.763 226.082 346.673C226.689 346.541 227.294 346.409 227.883 346.49C230.246 346.813 232.617 346.896 234.985 346.978H234.986C236.613 347.034 238.239 347.09 239.86 347.225C242.788 347.468 245.381 346.585 247.949 345.26C251.425 343.466 254.872 341.566 258.254 339.51C260.369 338.225 262.387 336.677 264.397 335.134L264.765 334.852C266.046 333.87 267.024 332.483 267.426 330.578C267.629 329.618 267.205 328.883 266.442 328.861C264.076 328.796 261.916 329.833 259.767 330.877C256.643 332.395 253.533 333.957 250.432 335.549C249.178 336.194 247.933 336.868 246.689 337.542L246.685 337.544C245.755 338.048 244.825 338.552 243.891 339.043C243.564 339.214 243.188 339.311 242.834 339.313C239.874 339.328 236.914 339.327 233.954 339.325C233.142 339.325 232.331 339.325 231.519 339.325C230.706 339.325 229.892 339.325 229.079 339.325C226.877 339.326 224.674 339.327 222.472 339.322C221.719 339.32 220.965 339.289 220.212 339.253C220.164 339.251 220.086 339.099 220.081 339.012C220.074 338.889 220.078 338.765 220.082 338.642V338.641V338.641V338.641V338.641V338.64V338.64V338.64C220.087 338.465 220.092 338.291 220.068 338.123C219.965 337.41 220.208 337.301 220.728 337.305C224.441 337.336 228.154 337.35 231.867 337.313L232.423 337.308L232.736 337.305L232.975 337.303C236.118 337.273 239.262 337.244 242.399 337.042C243.394 336.978 244.396 336.432 245.348 335.913L245.348 335.912L245.514 335.822L245.591 335.78C251.026 332.836 256.516 330.074 262.173 327.882C263.198 327.485 264.288 327.336 265.369 327.188H265.37L265.561 327.161L265.673 327.146C265.776 327.132 265.879 327.117 265.981 327.102C266.718 326.995 267.499 326.927 268.213 327.118C269.348 327.423 269.819 328.798 269.472 330.235C268.842 332.846 267.581 334.834 265.747 336.244C264.438 337.251 263.124 338.25 261.803 339.253C260.587 340.178 259.365 341.107 258.134 342.051C256.721 342.771 255.309 343.472 253.901 344.171L253.899 344.172L253.897 344.173L253.895 344.174L253.893 344.175L253.891 344.176L253.889 344.177ZM240.055 354.126C237.988 351.286 235.601 350.764 232.754 352.841C231.109 354.042 230.387 356.865 230.525 358.654C230.674 360.58 231.437 362.178 232.602 363.429C233.999 364.929 235.633 364.932 237.315 364.475C241.053 363.461 242.175 357.331 240.055 354.126ZM159.427 357.243C159.427 357.445 159.424 357.648 159.422 357.852C159.415 358.291 159.409 358.731 159.432 359.169C159.621 362.776 162.937 365.578 165.861 364.517C167.942 363.762 169.142 362.192 169.567 359.436C170.219 355.209 168.14 352.164 165.269 351.639C162.432 351.12 160.098 353.098 159.427 357.243ZM182.146 370.037H188.726H221.351L223.432 370.037L225.949 370.038C233.234 370.039 240.519 370.04 247.804 370.008C248.279 370.006 248.803 369.66 249.195 369.32C249.3 369.229 249.076 368.504 248.859 368.193C248.712 367.982 248.312 367.906 248.026 367.906C224.746 367.897 201.467 367.895 178.187 367.893C169.048 367.893 159.908 367.892 150.768 367.891C150.43 367.891 150.092 367.862 149.754 367.833C149.633 367.823 149.512 367.813 149.391 367.804C148.832 367.762 148.106 368.703 148.337 369.243C148.669 370.019 149.35 370.038 150.017 370.038C160.697 370.037 171.377 370.037 182.107 370.037H182.115H182.123H182.131H182.139H182.146ZM123.836 370.589L119.423 370.589H119.416H119.409H119.401H119.394H119.387C112.901 370.59 106.463 370.59 100.025 370.586C99.9888 370.586 99.9523 370.587 99.9157 370.588L99.8619 370.59L99.8198 370.591C99.3852 370.609 98.9517 370.627 98.7784 369.913C98.5776 369.085 98.8528 368.484 99.5841 368.376C99.7227 368.355 99.8642 368.361 100.006 368.366H100.006C100.071 368.369 100.136 368.371 100.201 368.371L106.865 368.371C118.342 368.372 129.82 368.372 141.297 368.368C141.334 368.368 141.372 368.368 141.409 368.368C142.002 368.364 142.563 368.36 142.538 369.371C142.517 370.208 142.124 370.589 141.209 370.589C136.807 370.589 132.405 370.589 127.963 370.589H123.836ZM277.651 370.593L282.276 370.593C283.267 370.593 284.255 370.593 285.24 370.593H285.249H285.258H285.267H285.275C289.036 370.594 292.754 370.595 296.471 370.584C296.858 370.583 297.251 370.485 297.629 370.374C297.733 370.343 297.837 370.114 297.862 369.959C298.053 368.765 297.746 368.376 296.638 368.376L270.688 368.376H255.551C255.486 368.376 255.421 368.372 255.355 368.368C255.213 368.361 255.071 368.353 254.935 368.382C254.18 368.543 253.911 369.204 254.211 370.004C254.44 370.618 254.866 370.606 255.294 370.594C255.353 370.592 255.413 370.591 255.472 370.591C262.841 370.593 270.209 370.593 277.628 370.593H277.634H277.64H277.645H277.651ZM245.68 74.4877C245.834 74.4679 246.557 74.6099 247.447 74.785C248.666 75.0244 250.198 75.3256 251.021 75.359C251.844 75.3925 251.062 76.506 250.927 76.5133C249.11 76.6107 245.172 75.0958 245.68 74.4877ZM248.333 83.2717C247.564 82.9039 247.932 79.9273 248.695 79.9273C249.448 79.9273 249.084 83.6308 248.333 83.2717ZM237.249 356.194C237.914 358.1 237.869 358.88 237.076 359.916C236.535 360.624 235.555 360.744 234.94 360.178C234.284 359.574 233.98 358.144 234.297 357.153C234.853 355.409 236.077 354.983 237.249 356.194ZM165.994 356.341C164.961 355.133 163.931 355.2 162.667 356.765C162.206 358.111 162.432 359.538 164.139 359.918C165.059 360.123 165.603 359.78 166.111 359.085C166.64 358.362 166.488 356.918 165.994 356.341Z" fill="#00160A"/>
<path fill-rule="evenodd" clip-rule="evenodd" d="M225.97 113.617C224.433 113.048 224.068 110.104 222.518 109.596C220.984 109.093 219.51 111.387 217.981 110.863C216.941 110.507 216.455 109.057 215.879 107.907C215.319 106.788 214.139 105.778 213.297 106.5L213.227 106.565C212.058 107.728 210.305 106.993 209.128 105.842C207.95 104.691 206.952 103.14 205.539 102.548C206.281 101.623 207.566 102.294 208.285 103.249C209.004 104.203 209.588 105.46 210.586 105.842C212.116 106.427 213.838 104.633 215.282 105.498C216.18 106.036 216.545 107.366 217.082 108.421C217.62 109.476 218.789 110.36 219.552 109.557C221.404 107.607 224.714 108.843 225.428 111.751C225.635 112.595 226.549 113.832 225.97 113.617Z" fill="#E7EAEE"/>
<path fill-rule="evenodd" clip-rule="evenodd" d="M134.285 334.624C138.555 337.801 151.932 347.159 161.738 347.469L242.845 347.792C242.845 347.792 285.493 328.852 254.312 335.998C252.547 336.403 247.493 340.22 239.367 341.052C224.511 342.572 161.738 341.601 161.738 341.601C161.738 341.601 133.161 333.788 134.285 334.624Z" fill="#E7EAEE"/>
<path fill-rule="evenodd" clip-rule="evenodd" d="M64.6293 271.616C64.7292 271.476 64.8504 271.376 64.9256 271.415C65.7797 271.862 66.2724 271.474 66.5319 270.408C66.575 270.232 66.7943 270.123 66.9322 269.982C67.059 270.196 67.2925 270.409 67.293 270.623C67.2948 271.333 67.5389 271.667 68.0735 271.878C68.3014 271.968 68.4362 272.429 68.6133 272.721C68.4349 272.773 68.1658 272.754 68.0971 272.892C67.9576 273.173 67.8845 273.533 67.8634 273.869C67.8455 274.154 67.9587 274.448 67.9785 274.742C68.0045 275.128 67.9554 275.411 67.5953 275.022C66.8762 274.246 66.2523 274.537 65.6381 275.269C65.4892 275.447 65.2272 275.475 65.0172 275.572C65.0556 275.331 65.0671 275.076 65.1369 274.85C65.5033 273.666 65.2502 272.649 64.6293 271.616Z" fill="#FFB61D"/>
<ellipse cx="240.811" cy="90.5529" rx="3.09865" ry="3.91278" fill="#FFB61D"/>
<path fill-rule="evenodd" clip-rule="evenodd" d="M196.474 125.381L196.83 126.075L196.948 126.299C197.695 127.683 198.83 129.042 200.091 128.639C203.449 127.566 207.269 129.439 209.173 133.091C210.114 134.897 212.205 134.543 213.914 134.08L214.139 134.018C215.853 133.538 218.224 133.764 218.657 135.861L218.679 135.982C218.879 137.19 220.083 137.557 221.074 137.525L221.381 137.511C223.873 137.511 224.199 139.241 224.2 139.063C224.2 139.063 218.721 138.539 217.568 136.193L217.498 136.043C216.764 134.419 214.909 134.684 213.459 135.236L213.059 135.393L212.859 135.467C211.443 135.968 209.725 136.149 209.014 134.606C207.383 131.066 203.986 128.962 200.769 129.501C199.941 129.639 199.083 129.933 198.29 129.601C196.393 128.808 196.146 125.111 194.28 124.21C191.925 123.072 189.646 127.394 187.209 126.578C188.691 125.15 190.334 123.989 192.073 123.141C192.656 122.857 193.275 122.604 193.895 122.698C195.044 122.874 195.815 124.121 196.474 125.381ZM226.389 129.647C226.153 130.561 225.98 131.373 225.865 132.061C225.626 130.076 224.064 128.241 222.591 128.884L222.506 128.923C221.571 129.394 220.581 128.417 219.977 127.402L219.832 127.155L219.614 126.777C219.125 125.934 218.599 125.103 217.817 124.863C216.386 124.424 215.124 126.222 213.661 126.437C210.277 126.933 208.585 119.283 205.263 120.232C204.536 120.44 203.908 121.069 203.17 121.196C201.132 121.547 200.039 118.276 198.322 116.847C197.03 115.772 195.206 115.837 193.964 117.003C194.027 115.135 196.039 114.312 197.413 115.014C198.786 115.717 199.729 117.298 200.87 118.492C201.981 119.656 203.632 120.456 204.843 119.509L204.935 119.432C206.391 118.159 208.34 119.774 209.478 121.489L209.891 122.114C210.929 123.675 212.116 125.296 213.673 125.146C215.102 125.009 216.319 123.327 217.737 123.596C219.803 123.988 220.647 128.192 222.724 127.908C224.059 127.725 225.448 128.291 226.446 129.425L226.389 129.647ZM227.461 120.85C227.128 121.44 226.793 121.914 226.458 122.271L226.346 122.386L226.067 122.134C224.708 120.916 223.225 119.73 221.573 119.779C220.97 119.797 220.352 119.981 219.773 119.766C218.236 119.196 217.871 116.253 216.32 115.745C214.787 115.242 213.313 117.535 211.784 117.011C210.744 116.655 210.258 115.205 209.682 114.056C209.122 112.937 207.942 111.927 207.099 112.649L207.03 112.713C205.861 113.877 204.108 113.142 202.93 111.991C201.753 110.84 200.755 109.289 199.341 108.697C200.083 107.772 201.369 108.443 202.088 109.397C202.806 110.351 203.391 111.609 204.389 111.99C205.919 112.575 207.641 110.782 209.085 111.647C209.983 112.185 210.348 113.514 210.885 114.57C211.422 115.625 212.592 116.509 213.355 115.706C215.207 113.756 218.517 114.992 219.23 117.9C219.437 118.743 220.327 118.94 221.014 118.77C221.7 118.601 222.406 118.223 223.073 118.488C223.922 118.826 224.357 120.072 225.175 120.515C226.025 120.976 227.042 120.39 227.611 119.462L227.668 119.365C228.126 118.555 227.912 120.052 227.461 120.85Z" fill="#FFB61D"/>
<path fill-rule="evenodd" clip-rule="evenodd" d="M209.639 143.026L209.895 143.121C210.238 143.253 210.497 143.449 210.798 143.771L210.947 143.936L211.136 144.153C211.228 144.259 211.299 144.338 211.372 144.414C211.874 144.933 212.442 145.255 213.391 145.445C214.027 145.573 214.475 145.445 215.248 144.99L215.526 144.822C216.776 144.061 217.502 143.849 218.673 144.189C219.673 144.48 220.133 144.969 220.506 145.889L220.601 146.133C220.78 146.604 221.356 147.04 221.812 147.383C222.153 147.641 222.426 147.847 222.412 147.978C222.379 148.284 220.267 147.79 219.847 146.731L219.756 146.494C219.483 145.783 219.234 145.499 218.474 145.279C217.584 145.02 217.044 145.155 216.05 145.746L215.771 145.914C214.762 146.527 214.144 146.728 213.252 146.549C212.148 146.328 211.434 145.923 210.811 145.278C210.768 145.233 210.726 145.188 210.682 145.14L210.311 144.718C210.051 144.426 209.875 144.282 209.636 144.19L209.49 144.134C208.872 143.906 207.458 144.499 206.427 144.931C205.78 145.202 205.285 145.41 205.231 145.312C205.115 145.101 208.408 142.608 209.639 143.026ZM209.488 151.522L209.725 151.605C210.043 151.722 210.283 151.893 210.562 152.176L210.701 152.322L210.876 152.513C210.961 152.605 211.027 152.675 211.095 152.741C211.561 153.198 212.088 153.481 212.967 153.648C213.557 153.76 213.972 153.648 214.689 153.248L214.947 153.101C216.106 152.432 216.779 152.245 217.865 152.544C218.793 152.799 219.219 153.229 219.566 154.038L219.653 154.252C219.819 154.666 220.354 155.049 220.776 155.351C221.093 155.577 221.346 155.759 221.333 155.874C221.302 156.143 219.344 155.708 218.954 154.778L218.87 154.569C218.617 153.944 218.386 153.695 217.681 153.501C216.856 153.274 216.355 153.393 215.433 153.912L215.175 154.06C214.239 154.598 213.666 154.775 212.838 154.618C211.815 154.424 211.153 154.068 210.575 153.501C210.535 153.462 210.496 153.422 210.455 153.38L210.111 153.009C209.87 152.752 209.706 152.626 209.485 152.545L209.349 152.496C208.776 152.295 207.465 152.816 206.509 153.196L206.509 153.196C205.91 153.434 205.45 153.617 205.4 153.531C205.293 153.345 208.346 151.155 209.488 151.522ZM209.927 160.549L209.703 160.465C208.625 160.098 205.741 162.289 205.843 162.474C205.89 162.56 206.324 162.378 206.89 162.139L206.89 162.139L206.89 162.139C207.793 161.76 209.031 161.239 209.572 161.439L209.701 161.488C209.91 161.569 210.064 161.695 210.292 161.952L210.617 162.323C210.655 162.366 210.692 162.405 210.73 162.444C211.276 163.011 211.901 163.367 212.867 163.562C213.649 163.719 214.19 163.542 215.074 163.004L215.318 162.856C216.189 162.337 216.662 162.218 217.442 162.445C218.107 162.639 218.325 162.888 218.564 163.513L218.644 163.721C219.012 164.651 220.862 165.086 220.89 164.817C220.903 164.702 220.663 164.521 220.365 164.295C219.966 163.992 219.461 163.61 219.304 163.195L219.221 162.981C218.894 162.172 218.492 161.743 217.615 161.487C216.59 161.189 215.954 161.375 214.86 162.044L214.616 162.192C213.939 162.591 213.546 162.703 212.989 162.591C212.159 162.424 211.661 162.141 211.221 161.685C211.157 161.618 211.095 161.549 211.014 161.456L210.849 161.265L210.718 161.12C210.454 160.837 210.228 160.665 209.927 160.549ZM209.703 171.086L209.927 171.169C210.228 171.286 210.454 171.457 210.718 171.74L210.849 171.885L211.014 172.077C211.095 172.169 211.157 172.238 211.221 172.305C211.661 172.762 212.159 173.045 212.989 173.212C213.546 173.324 213.939 173.212 214.616 172.812L214.86 172.664C215.954 171.996 216.59 171.809 217.615 172.108C218.492 172.363 218.894 172.793 219.221 173.601L219.304 173.816C219.461 174.23 219.966 174.613 220.365 174.915C220.663 175.141 220.903 175.322 220.89 175.438C220.862 175.706 219.012 175.272 218.644 174.342L218.564 174.133C218.325 173.508 218.107 173.259 217.442 173.065C216.662 172.838 216.189 172.957 215.318 173.476L215.074 173.624C214.19 174.162 213.649 174.339 212.867 174.182C211.901 173.988 211.276 173.632 210.73 173.065C210.692 173.026 210.655 172.986 210.617 172.943L210.292 172.573C210.064 172.316 209.91 172.19 209.701 172.109L209.572 172.06C209.031 171.859 207.793 172.38 206.89 172.76L206.89 172.76L206.89 172.76C206.324 172.998 205.89 173.181 205.843 173.095C205.741 172.909 208.625 170.719 209.703 171.086ZM210.61 181.79L210.373 181.706C209.231 181.339 206.178 183.53 206.285 183.715C206.335 183.801 206.795 183.618 207.394 183.38C208.35 183 209.662 182.479 210.235 182.68L210.371 182.729C210.592 182.81 210.755 182.936 210.997 183.193L211.34 183.564C211.381 183.606 211.42 183.646 211.46 183.685C212.038 184.252 212.7 184.608 213.724 184.803C214.551 184.96 215.124 184.783 216.06 184.245L216.318 184.096C217.24 183.577 217.741 183.459 218.567 183.686C219.271 183.88 219.502 184.129 219.755 184.753L219.84 184.962C220.229 185.892 222.188 186.327 222.218 186.058C222.231 185.943 221.978 185.762 221.662 185.535C221.239 185.233 220.704 184.851 220.539 184.436L220.451 184.222C220.105 183.413 219.678 182.984 218.751 182.728C217.665 182.43 216.991 182.616 215.833 183.285L215.575 183.432C214.858 183.832 214.442 183.944 213.852 183.832C212.973 183.665 212.446 183.382 211.981 182.926C211.913 182.859 211.846 182.789 211.761 182.697L211.586 182.506L211.448 182.361C211.168 182.078 210.929 181.906 210.61 181.79ZM212.786 191.533L213.031 191.563C213.361 191.608 213.621 191.725 213.935 191.942L214.091 192.055L214.29 192.205C214.386 192.277 214.461 192.331 214.537 192.382C215.058 192.729 215.616 192.892 216.505 192.864C217.101 192.845 217.495 192.644 218.146 192.093L218.38 191.891C219.429 190.978 220.066 190.647 221.177 190.703C222.126 190.751 222.605 191.081 223.057 191.801L223.173 191.993C223.393 192.365 223.972 192.624 224.43 192.829C224.773 192.983 225.047 193.105 225.05 193.222C225.057 193.493 223.068 193.495 222.557 192.664L222.445 192.477C222.11 191.917 221.848 191.723 221.128 191.686C220.283 191.644 219.806 191.87 218.97 192.584L218.736 192.786C217.888 193.521 217.348 193.821 216.512 193.848C215.477 193.881 214.776 193.676 214.129 193.244L213.994 193.151L213.605 192.861C213.332 192.661 213.153 192.572 212.924 192.541L212.784 192.523C212.192 192.451 210.972 193.251 210.083 193.835C209.525 194.201 209.098 194.482 209.037 194.408C208.906 194.249 211.611 191.422 212.786 191.533ZM218.37 198.772L218.173 198.795C217.235 198.934 215.368 201.54 215.487 201.633C215.543 201.676 215.853 201.388 216.259 201.011C216.905 200.411 217.792 199.588 218.267 199.53L218.379 199.517C218.563 199.497 218.713 199.529 218.948 199.626L219.283 199.768L219.399 199.812C219.951 200.01 220.525 200.031 221.339 199.812C221.997 199.635 222.395 199.31 222.994 198.606L223.159 198.412C223.752 197.725 224.107 197.467 224.778 197.34C225.351 197.231 225.576 197.327 225.895 197.679L226.001 197.796C226.485 198.317 228.056 197.941 228.024 197.741C228.011 197.656 227.782 197.616 227.497 197.567C227.116 197.501 226.633 197.417 226.423 197.183L226.314 197.062C225.887 196.613 225.477 196.458 224.723 196.601C223.84 196.768 223.368 197.134 222.627 198.008L222.462 198.202C222 198.733 221.708 198.957 221.239 199.083C220.54 199.271 220.083 199.255 219.638 199.095C219.573 199.072 219.509 199.046 219.426 199.011L219.254 198.937L219.12 198.883C218.851 198.78 218.635 198.743 218.37 198.772ZM223.043 203.826L223.239 203.802C223.504 203.773 223.72 203.811 223.989 203.913L224.123 203.968L224.295 204.041C224.378 204.077 224.443 204.103 224.508 204.126C224.953 204.286 225.409 204.302 226.109 204.114C226.578 203.988 226.869 203.764 227.331 203.233L227.497 203.039C228.238 202.165 228.709 201.799 229.592 201.632C230.346 201.489 230.756 201.643 231.183 202.093L231.293 202.213C231.502 202.448 231.985 202.531 232.366 202.597C232.651 202.647 232.88 202.686 232.893 202.772C232.925 202.972 231.354 203.347 230.87 202.827L230.764 202.71C230.446 202.357 230.22 202.262 229.647 202.371C228.976 202.498 228.621 202.756 228.029 203.442L227.863 203.636C227.264 204.341 226.867 204.665 226.208 204.843C225.394 205.061 224.821 205.041 224.268 204.843L224.152 204.799L223.817 204.657C223.582 204.56 223.433 204.528 223.249 204.548L223.136 204.561C222.662 204.618 221.775 205.442 221.128 206.042L221.128 206.042L221.128 206.042C220.723 206.419 220.412 206.707 220.357 206.664C220.238 206.571 222.104 203.965 223.043 203.826ZM229.471 209.241L229.317 209.295C228.582 209.573 227.381 211.988 227.486 212.042C227.535 212.066 227.752 211.78 228.034 211.407C228.484 210.812 229.101 209.996 229.473 209.866L229.562 209.835C229.707 209.787 229.83 209.785 230.029 209.821L230.313 209.875L230.41 209.889C230.874 209.95 231.334 209.864 231.961 209.544C232.467 209.285 232.749 208.955 233.149 208.285L233.26 208.101C233.657 207.446 233.912 207.177 234.434 206.956C234.88 206.767 235.071 206.803 235.365 207.028L235.463 207.103C235.908 207.433 237.122 206.853 237.074 206.699C237.054 206.633 236.867 206.642 236.633 206.653C236.321 206.668 235.926 206.687 235.732 206.537L235.631 206.46C235.24 206.177 234.895 206.127 234.308 206.375C233.621 206.666 233.284 207.042 232.789 207.873L232.679 208.058C232.369 208.564 232.161 208.795 231.8 208.979C231.262 209.254 230.895 209.323 230.521 209.274C230.467 209.267 230.412 209.258 230.342 209.244L230.197 209.216L230.083 209.196C229.857 209.162 229.68 209.171 229.471 209.241ZM234.237 213.811L234.391 213.757C234.6 213.687 234.777 213.678 235.003 213.712L235.117 213.732L235.262 213.76C235.333 213.774 235.387 213.783 235.441 213.79C235.815 213.839 236.182 213.77 236.72 213.496C237.081 213.311 237.289 213.08 237.599 212.574L237.709 212.389C238.204 211.558 238.541 211.182 239.228 210.891C239.815 210.643 240.16 210.693 240.551 210.977L240.652 211.054C240.846 211.204 241.241 211.184 241.553 211.169C241.787 211.158 241.974 211.149 241.994 211.215C242.042 211.369 240.828 211.949 240.383 211.619L240.285 211.544C239.991 211.319 239.8 211.283 239.354 211.472C238.832 211.693 238.577 211.963 238.18 212.617L238.069 212.801C237.669 213.471 237.387 213.801 236.881 214.06C236.255 214.38 235.794 214.466 235.33 214.406L235.233 214.391L234.949 214.337C234.75 214.302 234.627 214.303 234.482 214.351L234.393 214.382C234.021 214.512 233.404 215.329 232.954 215.923L232.954 215.923C232.672 216.297 232.455 216.583 232.407 216.558C232.301 216.505 233.502 214.089 234.237 213.811ZM240.146 218.229L239.992 218.283C239.257 218.561 238.056 220.976 238.161 221.03C238.21 221.054 238.426 220.768 238.708 220.395C239.158 219.8 239.775 218.984 240.148 218.853L240.237 218.823C240.382 218.775 240.505 218.773 240.703 218.809L240.987 218.863L241.084 218.877C241.548 218.938 242.009 218.852 242.635 218.532C243.142 218.273 243.424 217.943 243.824 217.273L243.935 217.089C244.332 216.434 244.587 216.165 245.109 215.944C245.554 215.755 245.746 215.791 246.039 216.016L246.138 216.091C246.582 216.421 247.796 215.841 247.749 215.687C247.728 215.621 247.541 215.63 247.307 215.641C246.996 215.656 246.6 215.675 246.407 215.525L246.305 215.448C245.914 215.165 245.569 215.115 244.982 215.363C244.295 215.654 243.959 216.03 243.464 216.861L243.353 217.045C243.044 217.552 242.835 217.783 242.475 217.967C241.936 218.242 241.57 218.31 241.196 218.262C241.142 218.255 241.087 218.246 241.017 218.232L240.871 218.204L240.758 218.184C240.532 218.15 240.355 218.159 240.146 218.229Z" fill="#FFB61D"/>
</svg>
