<svg width="1440" height="125" viewBox="0 0 1440 125" fill="none" xmlns="http://www.w3.org/2000/svg">
<path fill-rule="evenodd" clip-rule="evenodd" d="M1440 12.5V87.5H1384.8V62.5H1329.6L1274.4 62.5V125H1218V62.5H1162.8V12.5L1107.6 12.5V37.5H1052.4V7.62939e-06H997.2H942V75H885.6V100H830.4H775.2V50H720V37.5H664.8V12.5H609.6V100L554.4 100V87.5H498V7.62939e-06L442.8 7.62939e-06V37.5H387.6V75H332.4V12.5H277.2V87.5H222V112.5H165.6V7.62939e-06H110.4V75H55.2V100H0V7.62939e-06H55.2H110.4H165.6H222H277.2H332.4H387.6H442.8L498 7.62939e-06H554.4H609.6H664.8H720H775.2H830.4H885.6H942H997.2H1052.4H1107.6L1162.8 7.62939e-06H1218H1274.4H1329.6H1384.8H1440V12.5Z" fill="#FCF1F1"/>
</svg>
