<svg width="31" height="29" viewBox="0 0 31 29" fill="none" xmlns="http://www.w3.org/2000/svg">
<path d="M20.6667 9.6665C22.7221 9.6665 24.6933 10.4303 26.1467 11.79C27.6002 13.1496 28.4167 14.9937 28.4167 16.9165V25.3748H23.25V16.9165C23.25 16.2756 22.9778 15.6609 22.4934 15.2077C22.0089 14.7544 21.3518 14.4998 20.6667 14.4998C19.9815 14.4998 19.3244 14.7544 18.84 15.2077C18.3555 15.6609 18.0833 16.2756 18.0833 16.9165V25.3748H12.9167V16.9165C12.9167 14.9937 13.7332 13.1496 15.1866 11.79C16.64 10.4303 18.6112 9.6665 20.6667 9.6665V9.6665Z" stroke="white" stroke-width="2" stroke-linecap="round" stroke-linejoin="round"/>
<path d="M7.75 10.875H2.58334V25.375H7.75V10.875Z" stroke="white" stroke-width="2" stroke-linecap="round" stroke-linejoin="round"/>
<path d="M5.16667 7.24984C6.5934 7.24984 7.75 6.16786 7.75 4.83317C7.75 3.49848 6.5934 2.4165 5.16667 2.4165C3.73993 2.4165 2.58334 3.49848 2.58334 4.83317C2.58334 6.16786 3.73993 7.24984 5.16667 7.24984Z" stroke="white" stroke-width="2" stroke-linecap="round" stroke-linejoin="round"/>
</svg>
