<svg xmlns="http://www.w3.org/2000/svg" xmlns:xlink="http://www.w3.org/1999/xlink" xmlns:fi="http://pattern.flaticon.com/" x="0" y="0" width="1440" height="720" viewBox="0 0 2520 1260"><rect x="0px" y="0px" width="100%" height="100%" opacity="1" fill="#202020"/><defs><path d="m166 480c33.179688 0 64.097656-9.855469 90-26.777344 25.902344 16.921875 56.820312 26.777344 90 26.777344 91.53125 0 166-74.019531 166-165 0-65.195312-36.378906-120.609375-91.03125-147.664062 1.292969-92.453126-73.597656-167.335938-164.96875-167.335938-91.59375 0-166.515625 75.214844-164.964844 167.808594-53.96875 27.269531-91.035156 83.007812-91.035156 147.191406 0 90.980469 74.46875 165 166 165zm316-165c0 74.4375-61.007812 135-136 135-23.574219 0-45.75-6.078125-65.058594-16.746094 31.734375-30.851562 50.878906-74.007812 50.019532-121.285156 43.539062-22.296875 75.921874-63.382812 86.402343-112.488281 39.054688 23.472656 64.636719 65.984375 64.636719 115.519531zm-270.703125 8.84375c14.222656 4.007812 29.214844 6.15625 44.703125 6.15625s30.480469-2.148438 44.703125-6.15625c-2.359375 36.335938-19.15625 68.792969-44.703125 91.6875-25.546875-22.894531-42.339844-55.351562-44.703125-91.6875zm44.703125-109.375c22.398438 20.074219 38.070312 47.503906 43.183594 78.449219-13.566406 4.589843-28.089844 7.082031-43.183594 7.082031s-29.617188-2.492188-43.183594-7.082031c5.113282-30.945313 20.785156-58.375 43.183594-78.449219zm-71.175781 65.191406c-32.355469-20.15625-55.597657-53.617187-62.023438-92.675781 13.578125-4.527344 28.105469-6.984375 43.199219-6.984375 23.574219 0 45.75 6.078125 65.058594 16.746094-22.777344 22.144531-39.199219 50.792968-46.234375 82.914062zm96.117187-82.914062c19.308594-10.667969 41.484375-16.746094 65.058594-16.746094 15.183594 0 29.710938 2.359375 43.242188 6.722656-6.359376 39.167969-29.636719 72.734375-62.066407 92.9375-7.035156-32.121094-23.457031-60.769531-46.234375-82.914062zm-24.941406-166.746094c71.375 0 129.980469 55.679688 134.683594 125.882812-14.347656-3.878906-29.347656-5.882812-44.683594-5.882812-33.179688 0-64.097656 9.855469-90 26.777344-25.902344-16.921875-56.820312-26.777344-90-26.777344-15.480469 0-30.472656 2.125-44.699219 6.082031 4.609375-70.296875 63.257813-126.082031 134.699219-126.082031zm-161.238281 170.050781c10.609375 48.851563 42.90625 89.707031 86.277343 111.917969-.855468 47.261719 18.273438 90.421875 50.019532 121.285156-19.308594 10.667969-41.484375 16.746094-65.058594 16.746094-74.992188 0-136-60.5625-136-135 0-48.527344 25.933594-91.152344 64.761719-114.949219zm0 0" transform="matrix(0.09765625 0 0 0.09765625 62.5 150)" id="L1_232"/><g transform="matrix(0.09765625 0 0 0.09765625 237.5 150)" id="L1_233"><path d="m0 512h512v-512h-512zm482-30h-452v-332h293.5l90-120h68.5zm-106-452-67.5 90h-278.5v-90zm0 0"/><path d="m120 60h30v30h-30zm0 0"/><path d="m180 60h30v30h-30zm0 0"/><path d="m60 60h30v30h-30zm0 0"/><path d="m180 301h272v-121h-272zm30-91h212v61h-212zm0 0"/><path d="m180 452h121v-121h-121zm30-91h61v61h-61zm0 0"/><path d="m331 452h121v-121h-121zm30-91h61v61h-61zm0 0"/><path d="m60 452h90v-272h-90zm30-242h30v212h-30zm0 0"/></g><path d="m421 300c49.917969 0 91-40.425781 91-90 0-38.628906-25.324219-72.738281-61.679688-85.109375-4.949218-36.589844-36.390624-64.890625-74.320312-64.890625-4.738281 0-9.535156.5-14.347656 1.496094-28.277344-38.710938-72.59375-61.496094-120.652344-61.496094-59.523438 0-113.160156 35.722656-136.894531 90.015625-57.578125 1.003906-104.105469 47.714844-104.105469 104.984375 0 57.898438 47.550781 105 106 105h135v32.578125c-12.765625 4.527344-22.894531 14.65625-27.421875 27.421875h-65.15625c-6.195313-17.457031-22.867187-30-42.421875-30s-36.226562 12.542969-42.421875 30h-63.578125v30h63.578125c6.195313 17.457031 22.867187 30 42.421875 30s36.226562-12.542969 42.421875-30h65.15625c6.195313 17.457031 22.867187 30 42.421875 30s36.226562-12.542969 42.421875-30h65.15625c6.195313 17.457031 22.867187 30 42.421875 30s36.226562-12.542969 42.421875-30h63.578125v-30h-63.578125c-6.195313-17.457031-22.867187-30-42.421875-30s-36.226562 12.542969-42.421875 30h-65.15625c-4.527344-12.765625-14.65625-22.894531-27.421875-27.421875v-32.578125zm-315 90c-8.269531 0-15-6.730469-15-15s6.730469-15 15-15 15 6.730469 15 15-6.730469 15-15 15zm150 0c-8.269531 0-15-6.730469-15-15s6.730469-15 15-15 15 6.730469 15 15-6.730469 15-15 15zm150-30c8.269531 0 15 6.730469 15 15s-6.730469 15-15 15-15-6.730469-15-15 6.730469-15 15-15zm-376-165c0-41.355469 34.09375-75 76-75 20.003906 0 38.820312 7.753906 53.03125 21.96875l21.214844-21.214844c-12.695313-12.695312-28.070313-21.730468-44.847656-26.597656 20.519531-38.988281 60.992187-64.15625 105.601562-64.15625 41.425781 0 79.402344 21.242188 101.585938 56.824219l6.460937 10.367187 11.460937-4.230468c5.390626-1.992188 10.460938-2.960938 15.492188-2.960938 24.566406 0 44.597656 19.785156 44.992188 44.261719-.058594.480469-.121094 1.125-.136719 1.859375l-.316407 12.597656 12.355469 2.484375c28.453125 5.714844 49.105469 30.445313 49.105469 58.796875 0 33.085938-27.363281 60-61 60h-315c-41.90625 0-76-33.644531-76-75zm0 0" transform="matrix(0.13671875 0 0 0.13671875 315 315)" id="L1_234"/><g transform="matrix(0.09765625 0 0 0.09765625 150 325)" id="L1_235"><path d="m61 362h390c32.894531 0 61-26.585938 61-60 0-12.0625 0-235.78125 0-242 0-33.425781-28.113281-60-61-60-33.085938 0-60 26.914062-60 60h-270c0-33.085938-26.914062-60-60-60-32.894531 0-61 26.585938-61 60v242c0 33.425781 28.113281 60 61 60zm390-332c16.804688 0 31 13.738281 31 30v190.4375c-9.335938-5.5-19.972656-8.4375-31-8.4375-10.925781 0-21.167969 2.949219-30 8.070312v-190.070312c0-16.542969 13.457031-30 30-30zm-60 60v212h30c0-16.542969 13.457031-30 30-30 16.804688 0 31 13.738281 31 30s-14.195312 30-31 30h-390c-16.804688 0-31-13.738281-31-30s14.195312-30 31-30c16.542969 0 30 13.457031 30 30h30v-212zm-361-30c0-16.261719 14.195312-30 31-30 16.542969 0 30 13.457031 30 30v190.070312c-8.832031-5.121093-19.074219-8.070312-30-8.070312-11.027344 0-21.664062 2.9375-31 8.4375 0-14.113281 0-179.859375 0-190.4375zm0 0"/><path d="m512 392h-512v120h512zm-30 90h-452v-60h31v30h30v-30h30v30h30v-30h30v30h30v-30h30v30h30v-30h30v30h30v-30h30v30h30v-30h30v30h30v-30h31zm0 0"/><path d="m361 120h-210v122h210zm-30 92h-150v-62h150zm0 0"/><path d="m151 272h30v30h-30zm0 0"/><path d="m211 272h30v30h-30zm0 0"/><path d="m271 272h30v30h-30zm0 0"/><path d="m331 272h30v30h-30zm0 0"/></g></defs><g fi:class="KUsePattern"><pattern id="pattern_L1_232" width="350" height="350" patternUnits="userSpaceOnUse"><use xlink:href="#L1_232" x="-350" y="-350"/><use xlink:href="#L1_232" x="0" y="-350"/><use xlink:href="#L1_232" x="350" y="-350"/><use xlink:href="#L1_232" x="-350" y="0"/><use xlink:href="#L1_232" x="0" y="0"/><use xlink:href="#L1_232" x="350" y="0"/><use xlink:href="#L1_232" x="-350" y="350"/><use xlink:href="#L1_232" x="0" y="350"/><use xlink:href="#L1_232" x="350" y="350"/></pattern><rect x="0" y="0" width="100%" height="100%" fill="url(#pattern_L1_232)"/></g><g fi:class="KUsePattern"><pattern id="pattern_L1_233" width="350" height="350" patternUnits="userSpaceOnUse"><use xlink:href="#L1_233" x="-350" y="-350"/><use xlink:href="#L1_233" x="0" y="-350"/><use xlink:href="#L1_233" x="350" y="-350"/><use xlink:href="#L1_233" x="-350" y="0"/><use xlink:href="#L1_233" x="0" y="0"/><use xlink:href="#L1_233" x="350" y="0"/><use xlink:href="#L1_233" x="-350" y="350"/><use xlink:href="#L1_233" x="0" y="350"/><use xlink:href="#L1_233" x="350" y="350"/></pattern><rect x="0" y="0" width="100%" height="100%" fill="url(#pattern_L1_233)"/></g><g fi:class="KUsePattern"><pattern id="pattern_L1_234" width="350" height="350" patternUnits="userSpaceOnUse"><use xlink:href="#L1_234" x="-350" y="-350"/><use xlink:href="#L1_234" x="0" y="-350"/><use xlink:href="#L1_234" x="350" y="-350"/><use xlink:href="#L1_234" x="-350" y="0"/><use xlink:href="#L1_234" x="0" y="0"/><use xlink:href="#L1_234" x="350" y="0"/><use xlink:href="#L1_234" x="-350" y="350"/><use xlink:href="#L1_234" x="0" y="350"/><use xlink:href="#L1_234" x="350" y="350"/></pattern><rect x="0" y="0" width="100%" height="100%" fill="url(#pattern_L1_234)"/></g><g fi:class="KUsePattern"><pattern id="pattern_L1_235" width="350" height="350" patternUnits="userSpaceOnUse"><use xlink:href="#L1_235" x="-350" y="-350"/><use xlink:href="#L1_235" x="0" y="-350"/><use xlink:href="#L1_235" x="350" y="-350"/><use xlink:href="#L1_235" x="-350" y="0"/><use xlink:href="#L1_235" x="0" y="0"/><use xlink:href="#L1_235" x="350" y="0"/><use xlink:href="#L1_235" x="-350" y="350"/><use xlink:href="#L1_235" x="0" y="350"/><use xlink:href="#L1_235" x="350" y="350"/></pattern><rect x="0" y="0" width="100%" height="100%" fill="url(#pattern_L1_235)"/></g></svg>