<svg xmlns="http://www.w3.org/2000/svg" xmlns:xlink="http://www.w3.org/1999/xlink" xmlns:fi="http://pattern.flaticon.com/" x="0" y="0" width="1440" height="720" viewBox="0 0 2520 1260"><rect x="0px" y="0px" width="100%" height="100%" opacity="1" fill="#222222"/><defs><g transform="matrix(0.14204792155744622 0.03806162586783718 -0.03806162586783718 0.14204792155744622 -31.85487872623728 294.8818640620564)" id="L1_1386"><path d="M558.571,75.447h-206.73c19.256-21,34.244-33.946,34.7-34.315c6.236-5.09,7.179-14.166,2.108-20.412   c-5.071-6.228-14.231-7.355-20.487-2.275c-2.486,2.022-27.397,23.001-54.863,57.001H53.429C23.926,75.447,0,99.802,0,129.333   v340.242c0,29.531,23.926,53.871,53.429,53.871h247.232c5.449,29,25.232,65.643,78.488,73.248c0.709,0.098,1.399,0.044,2.079,0.044   c7.14,0,14.406-5.295,15.445-12.571c1.127-7.976-3.361-15.183-11.326-16.319c-36.042-5.146-48.566-27.401-52.875-44.401h226.1   c29.503,0,53.429-24.34,53.429-53.871V129.333C612,99.802,588.074,75.447,558.571,75.447z M29,469.576V129.333   c0-13.425,11.013-23.887,24.429-23.887h238.639c-33.994,51-64.125,121.761-52.756,203.523c1.321,9.559,8.869,19.477,26.024,19.477   H301c0,1,0,1.895,0,2.671l-1.261,109.342c-80.692-1.813-143.648-30.973-159.85-39.194l-9.581-21.634   c-3.273-7.354-11.871-10.676-19.225-7.402c-7.354,3.273-10.662,11.891-7.398,19.254l13.602,30.619l4.159,2.37   c4.703,2.684,78.495,43.631,178,45.598l-0.287,23.377H53.429C40.013,493.447,29,483,29,469.576z M583,469.576   c0,13.425-11.013,23.871-24.429,23.871H330V469.6c47-3.041,98.744-15.682,150.568-45.118l4.045-2.244l14.626-30.357   c3.497-7.256,0.466-15.97-6.791-19.457c-7.247-3.487-15.933-0.447-19.439,6.81l-10.756,22.09   C417.098,426.137,372,437.014,330,439.796V330.244c0-7.179-1.896-18.041-9.018-25.2c-3.604-3.604-10.349-5.597-15.517-5.597   h-37.973c-9.004-79,26.284-148,60.735-194h230.344c13.416,0,24.429,10.461,24.429,23.887V469.576z"/><path d="M431.101,130.868c-26.782,0-48.571,21.799-48.571,48.601s21.789,48.61,48.571,48.61s48.571-21.809,48.571-48.61   S457.883,130.868,431.101,130.868z M431.101,198.917c-10.715,0-19.429-8.724-19.429-19.448s8.714-19.438,19.429-19.438   c10.705,0,19.429,8.714,19.429,19.438S441.806,198.917,431.101,198.917z"/><path d="M168.174,228.079c26.772,0,48.562-21.809,48.562-48.61s-21.789-48.601-48.562-48.601   c-26.782,0-48.572,21.799-48.572,48.601S141.392,228.079,168.174,228.079z M168.174,160.03c10.705,0,19.429,8.714,19.429,19.438   s-8.724,19.448-19.429,19.448c-10.715,0-19.438-8.724-19.438-19.448S157.459,160.03,168.174,160.03z"/></g><path d="M361.684,612c-53.644,0-190.818-30.168-190.818-167.922V280.24h-22.945     c-1.352,0-3.216,0.271-5.253,0.512c-3.592,0.425-5.582,0.898-9.521,0.898c-21.65,0-20.221-16.542-20.221-18.425v-81.639     c0-15.055,15.393-25.079,21.506-27.416c20.53-7.687,98.808-63.938,98.808-123.047C233.239,16.436,243.823,0,259.361,0h91.209     c5.195,0,9.985,2.038,13.471,5.755c6.77,7.194,8.228,17.334,7.735,25.475c-0.077,1.419,1.883,2.743,1.883,3.863v90.533h78.239     c16.484,0,27.986,18.184,27.986,36.203v101.396c0,18.223-17.45,18.425-18.107,18.425c-2.598,0-5.745-0.618-7.146-1.023     c-0.956-0.28-2.376-0.387-2.733-0.387h-78.239v152.134c0,3.244,4.51,24.064,28.314,24.064c8.497,0,22.606-2.317,35.778-7.406     c7.29-2.714,14.195-2.328,20.752,0.733c6.538,3.013,11.482,8.739,13.896,15.673c2.201,6.297,5.727,18.339,9.976,32.293     l1.844,6.306c4.78,15.74,9.687,32.012,13.414,42.866c3.621,10.623,0.502,22.81-9.271,30.352C443.314,612,382.128,612,361.684,612     z M147.921,251.251h33.307c7.996,0,18.608,6.489,18.608,14.495v178.333c0,113.97,116.259,138.933,161.848,138.933     c17.991,0,71.654,0,108.881-28.643c-3.775-11.221-9.02-26.808-13.616-41.9l-2.183-6.307c-3.602-11.878-7.146-23.147-9.251-29.424     c-14.398,5.312-30.042,8.691-43.484,8.691c-45.126,0-57.342-40.568-57.342-52.041V265.746c0-8.005,2.365-14.495,10.361-14.495     h95.863v-89.422c0-2.308-4.5-5.06-4.992-7.213H355.05c-7.996,0-10.361-6.489-10.361-14.495V35.093     c0-1.622-1.961-3.554-1.835-5.61c0-0.155-2.038-0.319-2.028-0.493h-78.857c-0.405,0.724-0.753,1.632-0.792,2.192     c0,78.114-92.387,141.086-116.529,150.115c-1.13,0.435-2.752,1.97-2.752,3.245v67.598c0-0.058-1.052-0.116-0.569-0.174     C144.687,251.569,145.71,251.251,147.921,251.251z" transform="matrix(0.03267974033951759 0 0 0.03267974033951759 77.5 340)" id="L1_1387"/><g transform="matrix(0.06536000967025757 0 0 0.06536000967025757 155 330)" id="L1_1388"><path d="M305.714,441.438c-12.688,0-36.312,0.633-51.612-17.135c-11.278-13.115-14.717-30.988-10.793-56.926     c7.724-51.244,16.768-119.758,16.854-120.448c1.613-12.143,12.046-21.216,24.286-21.216c1.554,0,3.322-0.078,5.245-0.185     l1.855-0.087c4.032-0.282,8.763-0.524,13.571-0.524c7.771,0,31.426,0,47.036,17.796c10.695,12.211,14.698,29.318,11.881,50.835     c-3.332,25.462-7.597,55.108-11.133,79.608c-2.865,19.855-6.12,42.363-6.479,46.861c-1.029,12.629-11.744,21.896-24.412,21.896     l-16.154-0.477C305.811,441.438,305.762,441.438,305.714,441.438z M288.54,254.837c-2.04,15.377-9.715,72.769-16.417,117.212     c-2.517,16.68-1.195,27.754,4.061,33.863c5.469,6.344,15.319,7.627,29.463,7.627l12.182-0.117     c0.942-7.664,3.099-22.73,6.236-44.434c3.517-24.383,7.762-53.895,11.084-79.229c1.681-12.823,0.029-22.178-4.905-27.802     c-4.77-5.45-12.513-7.869-25.121-7.869c-4.109,0-8.131,0.223-11.773,0.486l-1.973,0.106     C290.395,254.74,289.453,254.798,288.54,254.837z" id="path-1_27_"/><path d="M316.186,219.769c-26.209,0-47.901-15.659-53.963-38.944c-3.701-14.115-1-28.919,7.606-41.665     c8.218-12.153,20.896-20.993,35.739-24.869c5.265-1.379,10.646-2.069,16.038-2.069c26.044,0,48.387,15.99,54.332,38.896     c3.798,14.523,0.874,29.667-8.238,42.607c-8.247,11.647-20.721,20.128-35.137,23.897     C327.182,219.04,321.665,219.769,316.186,219.769z M321.607,141.384c-2.905,0-5.829,0.369-8.666,1.127     c-7.984,2.079-14.717,6.693-18.972,12.978c-3.837,5.683-5.1,12.065-3.555,17.962c3.293,12.658,18.923,20.128,34.747,15.96     c7.83-2.04,14.475-6.479,18.729-12.512c4.129-5.857,5.469-12.24,3.847-18.428C345.164,148.563,334.177,141.384,321.607,141.384z" id="path-2_18_"/><path d="M528.91,444.626c-27.055,0-45.026-13.697-57.888-30.514c-0.515,3.877-0.661,5.285-0.699,5.781     c-1.06,12.773-11.784,22.021-24.432,22.021l-16.175-0.477c-0.077,0-0.165,0-0.232,0c-12.882,0-36.293,0.525-51.524-17.154     c-11.259-13.096-14.688-30.951-10.793-56.887c7.742-51.35,26.229-184.679,26.413-186.02     c1.681-12.055,12.104-21.061,24.247-21.061c1.991,0,4.371-0.107,6.936-0.272c4.731-0.282,9.171-0.524,13.678-0.524     c7.781,0,31.465,0.009,47.095,17.845c10.705,12.191,14.708,29.289,11.891,50.796c-0.398,3.06-0.854,6.421-1.341,10.025     c17.933-16.242,43.831-18.214,62.182-18.214c6.45,0,12.706,0.262,18.408,0.525l3.274,0.097     c8.878,0.233,23.741,0.622,30.007,14.882c3.886,8.986,2.118,19.351-4.449,26.472c-3.303,3.604-40.839,44.248-62.696,67.232     c13.037,25.947,24.859,34.379,27.569,35.215c12.522,0.971,22.615,12.639,21.779,25.889     C590.994,407.36,573.459,444.626,528.91,444.626z M462.571,355.331c5.547,0,10.695,3.188,13.144,8.307     c16.368,34.369,29.084,51.826,53.195,51.826c21.478,0,30.454-15.193,33.193-23.102c-16.719-4.936-35.467-27.229-50.067-60.111     c-2.409-5.432-1.282-11.783,2.847-16.059c15.406-15.931,47.853-50.922,62.269-66.503l-1.739-0.059     c-5.333-0.233-11.152-0.486-17.146-0.486c-14.076,0-33.971,1.263-44.142,12.163c-7.539,8.082-18.516,20.73-27.958,32.222     c-4.148,5.042-11.152,6.722-17.136,4.07c-5.975-2.633-9.472-8.927-8.549-15.407c3.264-22.751,6.179-43.569,8.043-57.829     c1.156-8.792,1.244-20.76-4.896-27.754c-4.799-5.469-12.561-7.907-25.189-7.907c-3.915,0-7.752,0.243-11.278,0.447     c-1.942,0.126-3.691,0.233-5.265,0.311c-3.118,22.499-18.895,136.059-25.918,182.6c-2.496,16.67-1.176,27.734,4.061,33.816     c5.498,6.381,15.378,7.664,29.531,7.664l12.152-0.117c0.651-5.168,2.264-16.99,6.422-45.6c0.913-6.361,5.887-11.365,12.23-12.326     C461.104,355.39,461.842,355.331,462.571,355.331z" id="path-3_10_"/><path d="M177.213,499.772c-16.776,0-37.827-4.293-51.854-22.564c-6.062-7.889-9.715-18.4-11.007-29.824     c-8.801,1.293-15.97,0.631-23.148,0.389c-4.41-0.135-44.326-2.457-70.497-33.621C3.211,393.353-3.249,365.853,1.521,332.679     C17.307,222.576,112.109,213.95,140.785,213.95c3.915,0,7.762,0.107,11.541,0.331c26.529,1.632,49.572,12.91,64.911,31.775     c17.466,21.498,23.702,50.407,18.544,85.951c-9.141,63.076-19.671,141.605-19.778,142.393     c-1.632,12.113-12.064,23.188-24.275,23.188l-14.28,2.186C177.369,499.772,177.292,499.772,177.213,499.772z M128.875,412.394     c2.924,0,5.838,0.883,8.335,2.613c4.312,3.012,6.674,8.121,6.168,13.367c-1.292,13.453,0.379,22.973,5.091,29.113     c5.013,6.537,13.318,9.209,28.628,9.219l10.56-0.166c2.263-16.795,11.288-83.629,19.282-138.729     c3.944-27.142-0.204-48.465-12.308-63.367c-10.142-12.473-25.782-19.963-44.055-21.09c-3.186-0.185-6.46-0.301-9.792-0.301     c-36.225,0-98.735,12.172-110.422,93.646c-3.536,24.596,0.729,44.258,12.647,58.432c18.331,21.828,47.882,22.963,49.126,23.002     c2.253,0.078,4.43,0.127,6.605,0.127c10.277,0,17.398-1.311,23.79-4.41C124.542,412.88,126.718,412.394,128.875,412.394z      M112.449,398.948l-3.935-0.096c-14.241-0.787-26.287-7.17-34.34-18.012c-11.113-14.93-13.998-37.895-7.907-62.967     c7.752-32.126,32.795-55.459,59.538-55.459c3.304,0,6.616,0.35,9.831,1.049c15.145,3.274,26.947,11.026,34.098,22.431     c11.453,18.224,8.111,40.546,3.914,57.964C162.662,389.39,134.305,398.948,112.449,398.948z M125.805,291.577     c-13.23,0-26.646,14.25-31.212,33.155c-3.982,16.398-2.875,30.854,2.973,38.701c2.914,3.945,6.888,5.984,12.134,6.275     l3.128,0.088c21.614-0.01,28.579-16.572,32.494-32.775c2.623-10.93,5.459-26.5-0.263-35.623     c-2.963-4.721-8.062-7.801-15.581-9.433C128.253,291.713,127.03,291.577,125.805,291.577z" id="path-4_6_"/></g><path d="M591.688,505.391L591.688,505.391c-3.447,0-6.225-0.988-7.891-1.568c-0.02-0.01-0.039-0.02-0.057-0.02     H385.09c-1.191,0-2.76,0.135-4.482,0.271c-2.973,0.223-4.221,0.455-7.309,0.455c-23.244,0-22.363-15.811-22.363-18.984V344.543     c0-11.635,8.346-18.15,13.941-21.656l0.377-0.898c5.943-3.883,13.475-4.453,17.744-4.453c4.869,0,8.781,0.705,12.131,2.1     c29.807,12.711,39.701,24.754,54.871,50.785c3.436,5.887,7.424,15.412,7.424,21.211v15.295h17.697     c-0.029-0.328-0.059-0.648-0.088-0.977c-0.475-5.305,1.143-10.436,0.891-12.662c-22.014-71.299-95.945-109.548-144.35-120.584     v212.842c0,18.461-16.719,18.982-18.395,18.982c-1.15,0-3.639-0.145-5.41-0.453c-0.592-0.107-2.363-0.271-3.35-0.271H30.492     c-27.377,0-29.624-17.213-29.662-22.488c-1.288-21.018-0.746-47.805-0.542-51.658c5.528-135.143,98.947-229.56,195.755-265.785     v-27.697c0-18.403,22.053-29.565,33.573-29.565h74.803c10.62,0,27.155,7.735,27.155,29.565v10.136     c154.893,10.775,279.988,138.919,280.191,286.368c0,5.314-0.117,38.045,0.232,50.215c0.059,6.369-1.607,11.598-7.387,17.367     C601.33,503.561,596.383,505.391,591.688,505.391z M379.979,349.045v126.238c0-0.068-0.34-0.127,0.494-0.193     c2.574-0.195,2.846-0.359,4.617-0.359h196.588c-0.379-13.465-1.027-37.105-1.027-42.033     c-0.174-136.548-120.863-254.702-265.998-257.993c-7.88-0.174-12.121-6.622-12.121-14.521v-24.008c0-0.184,0-0.349,0-0.503     h-72.916c-1.83,0.242-4.531,2.343-4.531,4.095v34.279c0,6.215-6.012,11.733-11.888,13.747     C125.393,217.861,33.425,304.727,28.266,431.002c-0.029,2.809,0.562,23.516,1.762,43.729c0.3,0,0.116,0,0.465,0h267.887     l0.019-219.163c0-4.133,1.762-8.074,4.84-10.823c3.088-2.759,7.213-4.076,11.297-3.611     c59.857,6.689,159.162,50.756,187.43,144.757c0.562,1.896,0.65,2.498,2.004,17.455c0.543,6.078,1.096,12.4,1.404,14.84     c0.242,1.055,0.369,2.148,0.369,3.271c0,8.016-6.506,14.531-14.521,14.531H438.77c-8.016,0-10.387-6.516-10.387-14.531v-29.826     c0-1.51-3.021-5.412-3.67-6.709c-13.93-23.902-18.713-29.361-39.875-38.412c0.32,0.154-0.861,0.086-1.84,0.086     c-1.441,0-2.885,0.164-3.514,0.291l0.92,0.639C379.775,347.922,379.979,348.484,379.979,349.045z M229.616,435.988h-115.25     c-11.026,0-17.357-4.811-20.727-8.838c-5.218-6.264-7.28-13.99-5.828-21.793c16.041-88.443,77.611-147.515,129.877-173.275     c2.652-1.288,6.167-2.74,10.436-2.74c5.314,0,9.187,2.11,12.401,4.095c10.252,6.458,9.729,17.28,9.526,21.346l-0.058,1.743     l0.029,156.287c0.097,4.686,0.242,11.762-5.373,17.484C240.952,434.072,235.889,435.988,229.616,435.988z M121.22,406.879     l103.865,0.037V263.273C176.682,287.872,135.287,336.537,121.22,406.879z" transform="matrix(0.03267974033951759 0 0 0.03267974033951759 252.5 340)" id="L1_1389"/><path d="M470.601,612c-69.651,0-126.527-55.721-128.47-124.955L206.537,412.21     c-19.833,11.94-42.179,18.201-65.157,18.201c-70.865,0-128.508-57.691-128.508-128.614c0-70.914,57.643-128.605,128.508-128.605     c23.891,0,46.975,6.688,67.312,19.444l133.537-70.234C345.471,54.362,401.813,0,470.601,0     c70.864,0,128.518,57.692,128.518,128.605c0,70.914-57.653,128.615-128.518,128.615c-23.909,0-46.984-6.708-67.283-19.463     l-124.333,65.409l126.499,69.806c19.833-11.921,42.17-18.191,65.128-18.191c70.864,0,128.518,57.691,128.518,128.614     C599.118,554.309,541.465,612,470.601,612z M205.925,380.67c2.417,0,4.834,0.603,7.038,1.815l150.961,83.3     c5.077,2.806,8.019,8.368,7.455,14.154c-0.097,1.126-0.175,2.291-0.175,3.455c0,54.848,44.597,99.464,99.396,99.464     c54.809,0,99.396-44.616,99.396-99.464c0-54.847-44.587-99.473-99.396-99.473c-19.998,0-39.413,6.213-56.158,17.959     c-4.562,3.194-10.522,3.515-15.396,0.825l-150.962-83.3c-4.99-2.757-7.921-8.193-7.475-13.892     c0.087-1.213,0.165-2.466,0.165-3.718c0-0.621-0.01-1.223-0.049-1.825c-0.311-5.698,2.728-11.047,7.766-13.697l149-78.378     c4.912-2.583,10.872-2.155,15.377,1.136c17.026,12.455,36.985,19.046,57.73,19.046c54.809,0,99.396-44.625,99.396-99.473     s-44.587-99.463-99.396-99.463c-54.799,0-99.396,44.616-99.396,99.463c0,0.622,0.039,1.223,0.078,1.835     c0.311,5.688-2.729,11.037-7.767,13.697l-148.981,78.349c-4.912,2.582-10.853,2.155-15.347-1.126     c-17.095-12.445-37.073-19.027-57.809-19.027c-54.809,0-99.385,44.616-99.385,99.463s44.577,99.473,99.385,99.473     c20.017,0,39.432-6.213,56.188-17.959C200.082,381.554,202.994,380.67,205.925,380.67z" transform="matrix(0.06535948067903519 0 0 0.06535948067903519 67.5 67.5)" id="L1_1390"/><path d="M584.094,68.752c-22.304-26.578-56.283-38.225-100.91-34.311C335.325,47.381,318.423,201.34,318.257,202.894  c-0.437,4.439,1.176,8.83,4.372,11.919c3.195,3.089,7.605,4.565,12.055,3.973c17.214-2.292,31.212-4.051,41.888-4.051  c12.969,0,14.921,2.691,14.998,2.807c0.846,1.263,4.294,9.394-10.666,46.016c-17.466,42.752-35.35,65.367-46.277,76.285  c-9.812-18.846-26.413-59.324-33.485-127.285c-11.21-107.7-41.596-140.602-45.054-144.021  c-17.048-16.786-37.564-25.296-60.956-25.296c-87.758,0-187.735,124.069-191.951,129.354c-4.177,5.246-4.245,12.667-0.166,17.991  l42.228,54.953c2.943,3.818,7.791,5.926,12.405,5.664c4.818-0.282,9.18-2.934,11.657-7.072  c7.586-12.696,13.153-16.058,15.027-16.058c10.754,0,32.747,48.172,43.957,108.119C172.681,560.85,248.17,578.307,270.25,578.297  c2.487,0,2.574-0.117,2.555-0.107c223.018-21.877,331.932-370.38,336.459-385.214c0.175-0.563,0.311-1.146,0.418-1.729  C610.226,188.139,622.601,114.661,584.094,68.752z M581.724,185.37c-6.289,19.799-111.858,343.751-309.651,363.708  c-7.177-0.859-73.612-14.292-113.924-218.384c-7.393-39.625-30.502-131.783-73.818-131.783c-9.928,0-19.088,4.469-27.724,13.561  l-23.343-30.366C56.918,154.771,133.3,72.404,195.131,72.404c15.688,0,28.958,5.537,40.294,16.689  c0.262,0.282,26.626,29.434,36.729,126.488c11.308,108.583,45.763,153.279,47.22,155.125c4.333,5.479,11.949,7.121,18.156,3.887  c3.847-1.992,38.399-21.77,70.359-99.998c15.349-37.555,17.631-58.79,7.888-73.312c-9.452-14.076-26.879-15.708-39.167-15.708  c-7.665,0-16.242,0.709-25.995,1.817c8.597-36.623,38.332-115.414,135.27-123.904c34.514-3.012,60.247,5.051,76.129,23.936  C589.942,120.615,582.841,177.851,581.724,185.37z" transform="matrix(0.06535948067903519 0 0 0.06535948067903519 242.5 67.5)" id="L1_1391"/><path d="M345.538,612H219.343c-8.038,0-10.416-6.523-10.416-14.57V340h-47.828     c-8.038,0-10.416-6.523-10.416-14.57V218.571c0-8.047,2.378-14.571,10.416-14.571h57.691     c-0.058-85.075,14.979-141.883,45.819-173.383C290.944,3.708,322.833,0,353.362,0h89.25c8.037,0,18.705,6.523,18.705,14.571     v116.576c0,8.047-10.668,14.57-18.705,14.57h-78.367V204h78.367c8.037,0,18.705,6.523,18.705,14.571V325.43     c0,8.047-10.668,14.57-18.705,14.57h-78.367v257.43C364.235,605.477,353.577,612,345.538,612z M238.04,582.858h97.073V325.43     c0-8.048,2.379-14.571,10.416-14.571h86.658v-77.717h-86.658c-8.037,0-10.416-6.523-10.416-14.571v-87.424     c0-8.047,2.379-14.571,10.416-14.571h86.658V29.142h-78.834c-22.521,0-48.197,1.689-67.951,21.871     c-26.481,27.035-39.053,83.309-37.354,167.267c0.078,3.912-1.417,7.698-4.164,10.494c-2.738,2.795-6.475,4.368-10.396,4.368     h-53.691v77.717h39.538c8.038,0,18.706,6.523,18.706,14.571V582.858L238.04,582.858z" transform="matrix(0.11437908560037613 0 0 0.11437908560037613 315 140)" id="L1_1392"/><g transform="matrix(0.1104817127687314 -0.02960348571478883 0.02960348571478883 0.1104817127687314 132.13393270115185 150.25127717003568)" id="L1_1393"><path d="M313.231,612l-16.481-0.092c-94.09-10.529-147.43-34.421-203.786-91.317     c-2.518-2.519-5.26-5.882-7.889-9.153c-1.203-1.509-2.375-2.977-3.486-4.271c-2.711-3.108-12.058-14.881-15.146-18.815     C27.047,438.313,6.294,379.409,4.775,313.277l-0.03-14.657c1.539-55.959,16.441-106.729,44.288-151.364     c11.864-18.755,25.788-36.124,41.403-51.719c0.795-1.09,1.692-2.12,2.63-3.078c4.556-4.556,9.5-9.051,14.545-13.536     c7.146-6.421,17.715-8.705,27.001-5.718l4.148,1.396c43.106,15.86,85.11,45.99,125.271,89.687     c10.244,11.151,9.785,28.143-1.04,38.702c-47.04,45.95-94.926,107.943-129.389,164.564     c38.101-45.328,84.234-97.281,122.101-127.707c9.591-8.368,20.691-17.083,33.463-26.257c9.428-6.829,22.965-6.86,32.465,0.041     c10.906,7.879,21.506,16.084,32.393,25.034c1.59,1.091,3.098,2.354,4.465,3.761c36.652,30.15,81.062,79.994,118.227,124.016     C442.212,310.21,394.694,248.92,348.173,203.47c-10.896-10.601-11.6-28.183-1.529-39.171     c40.182-43.707,81.982-73.766,124.221-89.34l5.098-1.712c9.846-3.19,19.896-0.806,27.193,5.718l1.08,0.969     c4.617,4.159,9.236,8.327,13.414,12.517c19.02,19.051,34.82,39.171,44.553,54.583c28.469,45.613,45.053,96.404,45.053,151.027     v14.209c0,65.407-22.078,124.21-61.35,174.767c-3.293,4.251-13.658,15.463-16.584,18.775c-1.121,1.295-2.783,3.119-3.955,4.893     c-2.305,3.496-4.965,7.104-7.992,10.091c-54.521,55.072-90.4,80.392-203.275,91.145L313.231,612z M299.319,581.401h12.475     c103.266-9.918,132.467-30.487,183.738-82.277c0.896-0.907,2.619-3.526,3.76-5.259c1.979-2.997,3.996-5.953,5.943-8.206     c2.6-2.945,11.447-13.647,14.361-17.409c0.316-0.397,0.621-0.795,0.928-1.192c-5.637-6.432-13.639-16.187-25.777-30.977     c-39.916-48.63-106.721-130.01-156.41-170.618l-3.109-2.64c-10.049-8.297-19.834-15.901-29.844-23.199     c-11.334,8.195-21.161,15.952-30.059,23.698C224.85,303.88,157.76,385.861,117.682,434.848     c-13.638,16.676-22.16,27.083-27.979,33.575c0.255,0.337,0.52,0.673,0.785,1.01c2.905,3.7,11.61,14.708,14.178,17.664     c1.396,1.601,2.834,3.384,4.281,5.209c1.896,2.354,3.812,4.82,5.677,6.666C165.904,550.762,212.567,571.596,299.319,581.401z      M126.764,102.846c-4.22,3.761-8.297,7.471-12.048,11.232l-1.702,2.161c-14.413,14.24-27.225,30.161-38.081,47.305     c-24.881,39.875-38.223,85.478-39.609,135.474l0.041,13.873c0.989,43.482,11.314,83.561,30.762,119.531     c30.711-79.331,109.155-185.897,173.564-249.419c-36.256-38.998-73.613-65.754-111.062-79.545L126.764,102.846z M370.995,183.013     c63.635,62.605,143.586,167.734,175.42,246.983c18.652-35.695,30.262-75.121,30.262-117.728V298.06     c0-48.803-15.035-94.141-40.354-134.75c-13.354-21.099-25.85-35.848-39.232-49.242c-3.75-3.761-8.43-7.481-12.588-11.232     l-3.211,0.989C444.679,117.32,407.282,144.015,370.995,183.013z" id="path-1_12_"/><path d="M305.363,154.229c-5.779,0-11.151-1.866-15.544-5.382c-4.587-3.68-9.072-7.349-13.506-10.968     c-32.739-26.715-63.685-51.922-84.305-46.459c-11.538,3.17-23.678-2.446-28.846-13.404c-5.229-11.039-1.59-26.206,7.981-33.096     c33.29-23.841,68.873-31.649,107.555-40.7l12.578-2.457V0h22.689l3.008,1.366c18.143,8.236,35.867,12.375,53.002,16.37     c23.311,5.433,47.396,11.06,69.535,26.909c9.725,7.003,13.221,21.109,7.992,32.148c-5.188,11.069-17.613,17.134-28.979,13.985     c-20.121-5.372-50.955,19.713-83.428,46.286c-4.648,3.812-9.367,7.665-14.148,11.518     C316.401,152.23,310.878,154.229,305.363,154.229z M203.934,60.311c29.172,2.813,58.599,26.838,91.705,53.859     c3.16,2.579,6.36,5.178,9.571,7.797c3.537-2.875,7.054-5.749,10.529-8.593c32.129-26.287,60.76-49.731,89.035-53.441     c-12.701-5.626-26.512-8.847-41.74-12.395c-16.838-3.935-35.838-8.358-55.611-16.94h-9.47l-14.464,3.415     C252.962,41.159,227.755,47.061,203.934,60.311z" id="path-2_7_"/></g><path d="M554.307,146.548c-1.96-31.153-12.153-57.806-30.518-79.606c-34.976-41.509-97.85-63.379-181.828-63.379  C309.296,3.562,140.407,0,138.708,0c-0.117,0-0.214,0-0.32,0c-6.795,0-12.717,4.562-14.212,11.231L10.92,516.528  c-0.971,4.319,0.078,8.702,2.844,12.157c2.757,3.446,6.95,5.314,11.367,5.314h75.101l-13.702,60.036  c-0.99,4.319,0.039,8.933,2.806,12.399c2.757,3.475,6.95,5.564,11.387,5.564h189.41c6.97,0,12.979-4.96,14.289-11.823  l23.745-123.497l88.706-0.729c0.437-0.01,0.873-0.028,1.319-0.077c1.495-0.146,150.406-16.9,180.081-190.051  C611.057,211.198,582.779,169.264,554.307,146.548z M149.988,29.129c39.548,0.854,163.735,3.637,191.973,3.637  c74.038,0,130.709,19.132,159.56,53.37c21.512,25.53,28.607,61.213,21.095,105.052c-26.793,156.356-152.134,175.297-163.443,176.598  L253.391,369c-0.029,0-0.068,0-0.097,0c-6.96,0-12.94,2.912-14.289,9.746L213.794,505H43.323L149.988,29.129z M569.569,280.892  c-25.22,147.173-143.252,164.666-153.687,165.927l-99.889,0.806c-6.932,0.059-12.863,5.08-14.174,11.895L278.096,583H118.992  l11.113-49h95.668c6.96,0,12.94-4.78,14.28-11.614l25.2-128.114l94.53,0.695c0.476,0,0.98,0.008,1.466-0.031  c1.583-0.155,158.735-16.95,190.07-199.788c0.52-3.028,0.971-6.016,1.369-8.98C570.628,209.802,576.315,241.532,569.569,280.892z" transform="matrix(0.08169934898614883 0 0 0.08169934898614883 62.5 237.5)" id="L1_1394"/><path d="M198.037,559.405c-131.983,0-182.819-65.991-195.254-86.217c-3.536-5.751-3.711-12.97-0.476-18.876     s9.453-9.646,16.204-9.753c35.429-0.554,77.318-3.391,105.384-9.53c-26.851-16.622-62.776-47.941-60.23-95.397     c-12.716-12.843-43.104-50.088-37.518-108.512C20.23,211.118-5.396,108.104,76.323,55.577c3.031-1.953,6.548-2.982,10.162-2.982     c7.529,0,14.329,4.439,17.302,11.317c5.936,13.766,41.442,82.234,170.753,113.418C279.921,147.847,299,89.918,366.148,69.79     c16.098-4.818,31.748-7.267,46.514-7.267c44.979,0,70.849,21.945,80.884,32.806c9.142,0.398,31.729-0.719,63.553-18.283     c8.248-4.537,19.196-1.943,24.539,5.722c3.498,5.013,4.323,11.453,2.206,17.214l-8.511,23.131l13.514-3.216     c7.305-1.739,15.203,1.205,19.584,7.286c3.546,4.896,4.518,11.259,2.613,17.01c-4.526,13.61-16.962,39.82-49.486,62.775     l-1.913,1.186c-1.681,1.447-11.541,11.619-8.928,49.107c3.711,53.109-56.977,262.178-280.403,296.324     C245.046,557.452,220.72,559.405,198.037,559.405z M39.223,473.179c20.692,22.888,66.992,57.063,158.814,57.063     c21.226,0,44.056-1.846,67.875-5.489c200.549-30.649,258.924-219.87,255.737-265.451c-3.905-55.966,16.204-72.5,23.946-76.755     c13.795-9.88,22.819-20.226,28.727-29.212l-10.968,2.613c-7.461,1.778-15.427-1.282-19.789-7.548     c-3.526-5.032-4.352-11.483-2.234-17.253l6.402-17.428c-21.878,8.694-39.422,10.832-51.391,10.832     c-4.721,0-8.276-0.35-10.434-0.641c-4.701-0.651-8.938-3.021-11.93-6.684c-3.497-4.304-22.645-25.54-61.318-25.54     c-11.93,0-24.771,2.03-38.149,6.042c-60.278,18.069-70.839,76.541-72.626,94.027c-1.02,9.676-9.103,16.952-18.808,16.952     l-3.973-0.418C149.979,180.342,100.017,117.79,82.715,86.907c-55.354,45.309-31.203,127.893-28.104,137.598     c0.757,2.38,1.01,4.916,0.748,7.5c-5.877,53.246,25.297,83.963,31.611,89.578c4.488,3.974,6.781,9.996,6.091,16.088     c-5.09,45.823,43.735,73.034,64.952,82.612c6.664,3.002,11.026,9.666,11.143,16.981c0.097,7.315-3.896,13.834-10.434,17.02     C131.647,467.515,75.555,471.809,39.223,473.179z" transform="matrix(0.14705882966518402 0 0 0.14705882966518402 217.5 217.5)" id="L1_1395"/></defs><g fi:class="KUsePattern"><pattern id="pattern_L1_1386" width="350" height="350" patternUnits="userSpaceOnUse"><use xlink:href="#L1_1386" x="-350" y="-350"/><use xlink:href="#L1_1386" x="0" y="-350"/><use xlink:href="#L1_1386" x="350" y="-350"/><use xlink:href="#L1_1386" x="-350" y="0"/><use xlink:href="#L1_1386" x="0" y="0"/><use xlink:href="#L1_1386" x="350" y="0"/><use xlink:href="#L1_1386" x="-350" y="350"/><use xlink:href="#L1_1386" x="0" y="350"/><use xlink:href="#L1_1386" x="350" y="350"/></pattern><rect x="0" y="0" width="100%" height="100%" fill="url(#pattern_L1_1386)"/></g><g fi:class="KUsePattern"><pattern id="pattern_L1_1387" width="350" height="350" patternUnits="userSpaceOnUse"><use xlink:href="#L1_1387" x="-350" y="-350"/><use xlink:href="#L1_1387" x="0" y="-350"/><use xlink:href="#L1_1387" x="350" y="-350"/><use xlink:href="#L1_1387" x="-350" y="0"/><use xlink:href="#L1_1387" x="0" y="0"/><use xlink:href="#L1_1387" x="350" y="0"/><use xlink:href="#L1_1387" x="-350" y="350"/><use xlink:href="#L1_1387" x="0" y="350"/><use xlink:href="#L1_1387" x="350" y="350"/></pattern><rect x="0" y="0" width="100%" height="100%" fill="url(#pattern_L1_1387)"/></g><g fi:class="KUsePattern"><pattern id="pattern_L1_1388" width="350" height="350" patternUnits="userSpaceOnUse"><use xlink:href="#L1_1388" x="-350" y="-350"/><use xlink:href="#L1_1388" x="0" y="-350"/><use xlink:href="#L1_1388" x="350" y="-350"/><use xlink:href="#L1_1388" x="-350" y="0"/><use xlink:href="#L1_1388" x="0" y="0"/><use xlink:href="#L1_1388" x="350" y="0"/><use xlink:href="#L1_1388" x="-350" y="350"/><use xlink:href="#L1_1388" x="0" y="350"/><use xlink:href="#L1_1388" x="350" y="350"/></pattern><rect x="0" y="0" width="100%" height="100%" fill="url(#pattern_L1_1388)"/></g><g fi:class="KUsePattern"><pattern id="pattern_L1_1389" width="350" height="350" patternUnits="userSpaceOnUse"><use xlink:href="#L1_1389" x="-350" y="-350"/><use xlink:href="#L1_1389" x="0" y="-350"/><use xlink:href="#L1_1389" x="350" y="-350"/><use xlink:href="#L1_1389" x="-350" y="0"/><use xlink:href="#L1_1389" x="0" y="0"/><use xlink:href="#L1_1389" x="350" y="0"/><use xlink:href="#L1_1389" x="-350" y="350"/><use xlink:href="#L1_1389" x="0" y="350"/><use xlink:href="#L1_1389" x="350" y="350"/></pattern><rect x="0" y="0" width="100%" height="100%" fill="url(#pattern_L1_1389)"/></g><g fi:class="KUsePattern"><pattern id="pattern_L1_1390" width="350" height="350" patternUnits="userSpaceOnUse"><use xlink:href="#L1_1390" x="-350" y="-350"/><use xlink:href="#L1_1390" x="0" y="-350"/><use xlink:href="#L1_1390" x="350" y="-350"/><use xlink:href="#L1_1390" x="-350" y="0"/><use xlink:href="#L1_1390" x="0" y="0"/><use xlink:href="#L1_1390" x="350" y="0"/><use xlink:href="#L1_1390" x="-350" y="350"/><use xlink:href="#L1_1390" x="0" y="350"/><use xlink:href="#L1_1390" x="350" y="350"/></pattern><rect x="0" y="0" width="100%" height="100%" fill="url(#pattern_L1_1390)"/></g><g fi:class="KUsePattern"><pattern id="pattern_L1_1391" width="350" height="350" patternUnits="userSpaceOnUse"><use xlink:href="#L1_1391" x="-350" y="-350"/><use xlink:href="#L1_1391" x="0" y="-350"/><use xlink:href="#L1_1391" x="350" y="-350"/><use xlink:href="#L1_1391" x="-350" y="0"/><use xlink:href="#L1_1391" x="0" y="0"/><use xlink:href="#L1_1391" x="350" y="0"/><use xlink:href="#L1_1391" x="-350" y="350"/><use xlink:href="#L1_1391" x="0" y="350"/><use xlink:href="#L1_1391" x="350" y="350"/></pattern><rect x="0" y="0" width="100%" height="100%" fill="url(#pattern_L1_1391)"/></g><g fi:class="KUsePattern"><pattern id="pattern_L1_1392" width="350" height="350" patternUnits="userSpaceOnUse"><use xlink:href="#L1_1392" x="-350" y="-350"/><use xlink:href="#L1_1392" x="0" y="-350"/><use xlink:href="#L1_1392" x="350" y="-350"/><use xlink:href="#L1_1392" x="-350" y="0"/><use xlink:href="#L1_1392" x="0" y="0"/><use xlink:href="#L1_1392" x="350" y="0"/><use xlink:href="#L1_1392" x="-350" y="350"/><use xlink:href="#L1_1392" x="0" y="350"/><use xlink:href="#L1_1392" x="350" y="350"/></pattern><rect x="0" y="0" width="100%" height="100%" fill="url(#pattern_L1_1392)"/></g><g fi:class="KUsePattern"><pattern id="pattern_L1_1393" width="350" height="350" patternUnits="userSpaceOnUse"><use xlink:href="#L1_1393" x="-350" y="-350"/><use xlink:href="#L1_1393" x="0" y="-350"/><use xlink:href="#L1_1393" x="350" y="-350"/><use xlink:href="#L1_1393" x="-350" y="0"/><use xlink:href="#L1_1393" x="0" y="0"/><use xlink:href="#L1_1393" x="350" y="0"/><use xlink:href="#L1_1393" x="-350" y="350"/><use xlink:href="#L1_1393" x="0" y="350"/><use xlink:href="#L1_1393" x="350" y="350"/></pattern><rect x="0" y="0" width="100%" height="100%" fill="url(#pattern_L1_1393)"/></g><g fi:class="KUsePattern"><pattern id="pattern_L1_1394" width="350" height="350" patternUnits="userSpaceOnUse"><use xlink:href="#L1_1394" x="-350" y="-350"/><use xlink:href="#L1_1394" x="0" y="-350"/><use xlink:href="#L1_1394" x="350" y="-350"/><use xlink:href="#L1_1394" x="-350" y="0"/><use xlink:href="#L1_1394" x="0" y="0"/><use xlink:href="#L1_1394" x="350" y="0"/><use xlink:href="#L1_1394" x="-350" y="350"/><use xlink:href="#L1_1394" x="0" y="350"/><use xlink:href="#L1_1394" x="350" y="350"/></pattern><rect x="0" y="0" width="100%" height="100%" fill="url(#pattern_L1_1394)"/></g><g fi:class="KUsePattern"><pattern id="pattern_L1_1395" width="350" height="350" patternUnits="userSpaceOnUse"><use xlink:href="#L1_1395" x="-350" y="-350"/><use xlink:href="#L1_1395" x="0" y="-350"/><use xlink:href="#L1_1395" x="350" y="-350"/><use xlink:href="#L1_1395" x="-350" y="0"/><use xlink:href="#L1_1395" x="0" y="0"/><use xlink:href="#L1_1395" x="350" y="0"/><use xlink:href="#L1_1395" x="-350" y="350"/><use xlink:href="#L1_1395" x="0" y="350"/><use xlink:href="#L1_1395" x="350" y="350"/></pattern><rect x="0" y="0" width="100%" height="100%" fill="url(#pattern_L1_1395)"/></g></svg>