<svg xmlns="http://www.w3.org/2000/svg" width="1440" height="128" fill="none" viewBox="0 0 1440 128"><path fill="#fff" fill-rule="evenodd" d="M1466 3.43316e-08L1447.59 25.571C1427.95 51.1421 1389.9 102.284 1353.07 105.125C1315.02 107.967 1276.97 62.507 1238.91 56.8245C1202.09 51.1421 1164.04 85.2368 1125.98 105.125C1087.93 125.014 1051.11 130.696 1013.05 122.173C975 113.649 936.948 90.9192 898.895 73.8719C862.07 56.8245 824.018 45.4596 785.965 62.507C747.913 79.5543 711.088 125.014 673.035 127.855C634.983 130.696 596.93 90.9192 560.105 79.5543C522.053 68.1894 484 85.2368 445.948 90.9192C407.895 96.6017 371.07 90.9192 333.018 85.2368C294.965 79.5543 256.913 73.8719 220.088 71.0307C182.035 68.1894 143.983 68.1894 105.93 71.0307C69.105 73.8719 31.0525 79.5543 11.4125 82.3956L-6.99995 85.2368V3.43312e-08H11.4125C31.0525 3.43312e-08 69.105 3.43312e-08 105.93 3.43312e-08C143.983 3.43313e-08 182.035 3.43313e-08 220.088 3.43313e-08C256.913 3.43313e-08 294.965 3.43313e-08 333.018 3.43313e-08C371.07 3.43313e-08 407.895 3.43313e-08 445.948 3.43313e-08C484 3.43313e-08 522.053 3.43314e-08 560.105 3.43314e-08C596.93 3.43314e-08 634.983 3.43314e-08 673.035 3.43314e-08C711.088 3.43314e-08 747.913 3.43314e-08 785.965 3.43314e-08C824.018 3.43314e-08 862.07 3.43314e-08 898.895 3.43314e-08C936.948 3.43315e-08 975 3.43315e-08 1013.05 3.43315e-08C1051.11 3.43315e-08 1087.93 3.43315e-08 1125.98 3.43315e-08C1164.04 3.43315e-08 1202.09 3.43315e-08 1238.91 3.43315e-08C1276.97 3.43315e-08 1315.02 3.43316e-08 1353.07 3.43316e-08C1389.9 3.43316e-08 1427.95 3.43316e-08 1447.59 3.43316e-08H1466Z" clip-rule="evenodd"/></svg>