<svg width="138" height="41" viewBox="0 0 138 41" fill="none" xmlns="http://www.w3.org/2000/svg">
<g clip-path="url(#clip0)">
<path d="M0.896723 31.1186V15.7836H20.0433V14.8866H0.896723V0.896723H21.2538V0H0V32.0153H21.4331V31.1186H0.896992H0.896723ZM38.6966 8.96777L30.7601 19.4155L23.0026 8.96804H21.8368L30.2219 20.0883L21.0294 32.0151H22.1056L30.7596 20.7603L39.4585 32.0151H40.5794L31.3425 20.0877L39.7723 8.9675H38.6963L38.6966 8.96777ZM43.2701 39.9071V25.5588H43.3597C43.898 27.6512 44.9591 29.3327 46.5435 30.6032C48.1278 31.8735 50.1454 32.5089 52.5966 32.5089C54.181 32.5089 55.5861 32.1876 56.8116 31.5449C58.0372 30.9022 59.061 30.0278 59.8832 28.9217C60.7051 27.8156 61.3329 26.5303 61.7665 25.0655C62.1998 23.6009 62.4167 22.0612 62.4167 20.4473C62.4167 18.7133 62.1923 17.1139 61.7439 15.6493C61.2955 14.1845 60.6453 12.9139 59.7935 11.838C58.9415 10.7618 57.9102 9.92451 56.6994 9.32705C55.4889 8.72905 54.1212 8.43006 52.5966 8.43006C51.4308 8.43006 50.3473 8.60203 49.3459 8.9457C48.3444 9.28964 47.4553 9.77514 46.678 10.403C45.8962 11.0357 45.2158 11.7842 44.6601 12.6225C44.0923 13.4745 43.6587 14.4087 43.3597 15.4251H43.2701V8.96777H42.3734V39.9071H43.2701ZM52.5966 31.6566C49.787 31.6566 47.5298 30.6926 45.826 28.7646C44.1222 26.8366 43.2701 24.0638 43.2701 20.4467C43.2701 18.952 43.4795 17.5321 43.898 16.187C44.3165 14.8419 44.9217 13.661 45.7138 12.6448C46.5061 11.6283 47.4851 10.8212 48.6507 10.2235C49.8166 9.62551 51.132 9.32651 52.5966 9.32651C54.0913 9.32651 55.3993 9.62551 56.5202 10.2235C57.6411 10.8212 58.568 11.6359 59.3002 12.6672C60.0325 13.6984 60.5856 14.8794 60.9594 16.2094C61.3329 17.5397 61.5197 18.952 61.5197 20.4467C61.5197 21.7921 61.348 23.1299 61.0041 24.4599C60.6604 25.7902 60.1297 26.9859 59.4122 28.0474C58.695 29.1082 57.7759 29.9751 56.6547 30.6479C55.5336 31.3204 54.181 31.6566 52.5966 31.6566ZM67.3489 32.0153V18.9671C67.3489 17.7116 67.5282 16.4858 67.8872 15.2903C68.2457 14.0946 68.7987 13.0407 69.5461 12.1292C70.2934 11.2174 71.2424 10.4999 72.3934 9.97672C73.5442 9.45354 74.9119 9.23689 76.4962 9.32651V8.42979C75.121 8.40018 73.918 8.54928 72.8867 8.87815C71.8552 9.20702 70.966 9.65538 70.2186 10.2235C69.4713 10.7914 68.8735 11.4564 68.4252 12.2188C67.9771 12.98 67.6447 13.8035 67.4386 14.6624H67.3489V8.96777H66.4522V32.0156H67.3489V32.0153ZM77.6171 20.6709H96.898C96.958 19.0866 96.8011 17.5623 96.4273 16.0974C96.0538 14.6326 95.4558 13.3322 94.6339 12.1965C93.8117 11.0605 92.7505 10.1487 91.4501 9.46107C90.1497 8.77346 88.6028 8.42979 86.8093 8.42979C85.5237 8.42979 84.2683 8.69891 83.0427 9.23716C81.8171 9.77514 80.7409 10.5596 79.8143 11.5909C78.8877 12.6222 78.1403 13.8852 77.5724 15.3802C77.0046 16.8746 76.7204 18.5785 76.7204 20.4917C76.7204 22.1955 76.9147 23.7874 77.3033 25.267C77.6919 26.7467 78.2897 28.0323 79.0968 29.1233C79.9041 30.2143 80.943 31.0589 82.2132 31.6566C83.4835 32.2546 85.0156 32.5385 86.8093 32.5086C89.4398 32.5086 91.652 31.7685 93.4454 30.2892C95.2391 28.8092 96.3003 26.7243 96.6292 24.0339H95.7324C95.3438 26.575 94.3497 28.4806 92.7505 29.7509C91.1511 31.0214 89.141 31.6566 86.7195 31.6566C85.0754 31.6566 83.6853 31.3727 82.5494 30.8048C81.4137 30.2369 80.4868 29.4594 79.7693 28.4731C79.0521 27.4865 78.5214 26.3282 78.1777 24.9979C77.8338 23.6679 77.647 22.2254 77.6171 20.6709ZM96.0013 19.7742H77.6174C77.7067 18.16 78.0057 16.7102 78.5138 15.4249C79.0222 14.1393 79.6872 13.0407 80.5094 12.1292C81.3313 11.2174 82.288 10.5225 83.3791 10.044C84.4701 9.56576 85.6435 9.32651 86.899 9.32651C88.3937 9.32651 89.7086 9.60317 90.8449 10.1562C91.9806 10.7093 92.9298 11.4642 93.6922 12.4206C94.4544 13.3771 95.0297 14.4907 95.4184 15.761C95.807 17.0315 96.0013 18.3694 96.0013 19.7742ZM115.507 15.7836H116.403C116.403 13.2127 115.656 11.3444 114.162 10.1786C112.667 9.01271 110.634 8.42979 108.063 8.42979C106.628 8.42979 105.418 8.60929 104.431 8.96804C103.445 9.32651 102.638 9.78994 102.01 10.3578C101.382 10.9256 100.934 11.5535 100.665 12.2411C100.396 12.9287 100.261 13.5865 100.261 14.2141C100.261 15.4695 100.485 16.471 100.934 17.2183C101.382 17.9657 102.085 18.5486 103.041 18.9671C103.699 19.2658 104.446 19.5349 105.283 19.7745C106.12 20.0134 107.092 20.2675 108.198 20.5364C109.184 20.7759 110.156 21.0149 111.112 21.2538C112.069 21.4931 112.913 21.8144 113.646 22.2178C114.378 22.6215 114.976 23.1372 115.439 23.765C115.903 24.3926 116.134 25.2148 116.134 26.231C116.134 27.2176 115.903 28.0546 115.439 28.742C114.98 29.426 114.375 30.0002 113.668 30.4237C112.951 30.857 112.151 31.1708 111.269 31.3651C110.387 31.5594 109.528 31.6566 108.691 31.6566C105.971 31.6566 103.886 31.0513 102.436 29.8408C100.986 28.63 100.261 26.7243 100.261 24.1235H99.3643C99.3643 27.0233 100.149 29.1456 101.718 30.491C103.288 31.8361 105.612 32.5086 108.691 32.5086C109.677 32.5086 110.671 32.3964 111.673 32.1722C112.674 31.948 113.571 31.582 114.363 31.0737C115.148 30.5725 115.808 29.8976 116.291 29.101C116.784 28.2936 117.031 27.3073 117.031 26.1414C117.031 25.0353 116.814 24.1386 116.381 23.451C115.947 22.7636 115.38 22.1955 114.677 21.7471C113.974 21.2988 113.182 20.9476 112.301 20.6935C111.414 20.438 110.524 20.1913 109.632 19.9534C108.535 19.6655 107.436 19.3816 106.337 19.1017C105.395 18.8624 104.521 18.5785 103.714 18.2496C102.937 17.9207 102.316 17.45 101.853 16.8372C101.389 16.2244 101.158 15.3501 101.158 14.2141C101.158 14.005 101.218 13.6312 101.337 13.0932C101.457 12.5549 101.741 12.0094 102.189 11.4564C102.638 10.9036 103.325 10.4103 104.252 9.97672C105.178 9.54342 106.449 9.32651 108.063 9.32651C109.169 9.32651 110.178 9.44627 111.09 9.68525C112.002 9.92451 112.786 10.3056 113.444 10.8288C114.102 11.3519 114.61 12.0169 114.968 12.8241C115.327 13.6314 115.507 14.6178 115.507 15.7836ZM136.267 15.7836H137.164C137.164 13.2127 136.417 11.3444 134.922 10.1786C133.427 9.01271 131.395 8.42979 128.824 8.42979C127.389 8.42979 126.178 8.60929 125.192 8.96804C124.205 9.32651 123.398 9.78994 122.771 10.3578C122.143 10.9256 121.694 11.5535 121.425 12.2411C121.156 12.9287 121.022 13.5865 121.022 14.2141C121.022 15.4695 121.246 16.471 121.695 17.2183C122.143 17.9657 122.845 18.5486 123.802 18.9671C124.46 19.2658 125.207 19.5349 126.044 19.7745C126.881 20.0134 127.852 20.2675 128.958 20.5364C129.945 20.7759 130.916 21.0149 131.873 21.2538C132.83 21.4931 133.674 21.8144 134.406 22.2178C135.139 22.6215 135.737 23.1372 136.2 23.765C136.663 24.3926 136.895 25.2148 136.895 26.231C136.895 27.2176 136.663 28.0546 136.2 28.742C135.74 29.426 135.136 30.0002 134.429 30.4237C133.711 30.857 132.912 31.1708 132.03 31.3651C131.148 31.5594 130.289 31.6566 129.452 31.6566C126.731 31.6566 124.646 31.0513 123.197 29.8408C121.747 28.63 121.022 26.7243 121.022 24.1235H120.125C120.125 27.0233 120.91 29.1456 122.479 30.491C124.048 31.8361 126.373 32.5086 129.452 32.5086C130.438 32.5086 131.432 32.3964 132.433 32.1722C133.435 31.948 134.332 31.582 135.124 31.0737C135.909 30.5725 136.569 29.8976 137.052 29.101C137.545 28.2936 137.792 27.3073 137.792 26.1414C137.792 25.0353 137.575 24.1386 137.142 23.451C136.708 22.7636 136.14 22.1955 135.438 21.7471C134.735 21.2988 133.943 20.9476 133.061 20.6935C132.174 20.438 131.285 20.1913 130.393 19.9534C129.296 19.6655 128.197 19.3816 127.098 19.1017C126.156 18.8624 125.281 18.5785 124.474 18.2496C123.697 17.9207 123.077 17.45 122.614 16.8372C122.15 16.2244 121.919 15.3501 121.919 14.2141C121.919 14.005 121.978 13.6312 122.098 13.0932C122.218 12.5549 122.502 12.0094 122.95 11.4564C123.398 10.9036 124.086 10.4103 125.012 9.97672C125.939 9.54342 127.21 9.32651 128.824 9.32651C129.93 9.32651 130.939 9.44627 131.851 9.68525C132.762 9.92451 133.547 10.3056 134.205 10.8288C134.862 11.3519 135.37 12.0169 135.729 12.8241C136.088 13.6314 136.267 14.6178 136.267 15.7836H136.267Z" fill="#222222"/>
</g>
<defs>
<clipPath id="clip0">
<rect width="137.792" height="40.0996" fill="white"/>
</clipPath>
</defs>
</svg>
