<svg xmlns="http://www.w3.org/2000/svg" width="74" height="74" fill="none" viewBox="0 0 74 74"><path fill="url(#paint0_linear)" d="M38.4337 69.3749L36.6971 68.7991C36.6971 68.7991 36.9283 60.0116 33.7486 59.3942C31.6674 56.9707 34.0562 -44.0694 41.6643 59.0496C40.2208 59.7818 39.1163 61.0438 38.5817 62.5716C38.2953 64.828 38.2456 67.1082 38.4337 69.3749Z"/><path fill="url(#paint1_linear)" d="M39.3726 60.8858C43.9966 57.405 47.5378 52.6833 49.5846 47.2696C51.6314 41.8558 52.0997 35.9724 50.9351 30.303C47.5357 15.3064 39.4859 10.3762 38.6188 8.49382C37.8706 7.32169 37.2319 6.08312 36.7109 4.79382L37.3515 46.5784C37.3515 46.5784 36.0241 59.348 39.3726 60.8858Z"/><path fill="url(#paint2_linear)" d="M35.8137 61.4408C35.8137 61.4408 21.6589 51.8 22.4775 34.7453C22.5539 29.6038 23.7328 24.5386 25.9345 19.8917C28.1362 15.2449 31.3096 11.1246 35.2402 7.80931C35.6995 7.41907 36.0645 6.92981 36.3076 6.37829C36.5507 5.82677 36.6657 5.22733 36.6439 4.625C37.525 6.52125 37.3816 32.9369 37.4741 36.0264C37.8325 48.0445 36.8058 59.1723 35.8137 61.4408Z"/><defs><linearGradient id="paint0_linear" x1="26.759" x2="46.72" y1="37.583" y2="44.357" gradientUnits="userSpaceOnUse"><stop offset=".231" stop-color="#747474"/><stop offset=".563" stop-color="#9B9977"/><stop offset=".683" stop-color="#A09F7E"/><stop offset=".768" stop-color="#A9A889"/><stop offset=".837" stop-color="#B7B69A"/><stop offset=".896" stop-color="#C9C7B0"/><stop offset=".948" stop-color="#DEDDCB"/><stop offset=".994" stop-color="#F8F6EB"/><stop offset="1" stop-color="#FBF9EF"/></linearGradient><linearGradient id="paint1_linear" x1="34.079" x2="42.904" y1="4.495" y2="59.6" gradientUnits="userSpaceOnUse"><stop stop-color="#6B6B6B"/><stop offset="1" stop-color="#797979"/></linearGradient><linearGradient id="paint2_linear" x1="21.26" x2="44.941" y1="36.434" y2="28.503" gradientUnits="userSpaceOnUse"><stop stop-color="#969696"/><stop offset=".352" stop-color="#ACACAC"/><stop offset=".956" stop-color="#67B554"/><stop offset="1" stop-color="#A2A2A2"/></linearGradient></defs></svg>