<svg width="106" height="67" viewBox="0 0 106 67" fill="none" xmlns="http://www.w3.org/2000/svg">
<g clip-path="url(#clip0)" filter="url(#filter0_d)">
<path d="M27.0024 15.3613H45.389V16.8249H28.6878V27.8399H44.3932V29.3033H28.6878V41.3967H45.5806V42.8602H27.0024V15.3613ZM47.0364 15.3613H48.9899L57.6468 27.4547L66.4953 15.3611L78.5308 0L58.7576 28.7257L68.9469 42.8602H66.9167L57.6468 29.9966L48.3385 42.8602H46.3467L56.6126 28.7256L47.0362 15.3613H47.0364ZM69.6747 16.8249V15.3611H90.6279V16.8247H80.9748V42.86H79.2893V16.8249H69.6747ZM4 15.3611H6.10679L35.1582 58.8974L23.1528 42.86L5.76197 17.441L5.68543 42.8604H4V15.3611ZM90.4581 40.9547C90.1136 40.9547 89.8555 40.6878 89.8555 40.3423C89.8555 39.9972 90.1136 39.7298 90.4581 39.7298C90.8065 39.7298 91.0607 39.997 91.0607 40.3423C91.0607 40.6876 90.8065 40.9547 90.4581 40.9547ZM92.1142 39.3435H93.0161C93.0283 39.8326 93.3849 40.1615 93.9097 40.1615C94.4959 40.1615 94.828 39.808 94.828 39.1461V34.9531H95.7463V39.1502C95.7463 40.3423 95.0576 41.0289 93.9179 41.0289C92.8478 41.0289 92.1142 40.3629 92.1142 39.3433V39.3435ZM96.9473 39.2901H97.8575C97.9353 39.8532 98.4846 40.2107 99.2759 40.2107C100.014 40.2107 100.555 39.8284 100.555 39.3023C100.555 38.8502 100.21 38.5789 99.4275 38.3939L98.6649 38.209C97.5949 37.958 97.1073 37.4401 97.1073 36.5687C97.1073 35.5124 97.9681 34.8094 99.2594 34.8094C100.46 34.8094 101.338 35.5122 101.391 36.5112H100.497C100.411 35.9645 99.9357 35.6232 99.247 35.6232C98.5216 35.6232 98.0379 35.9727 98.0379 36.507C98.0379 36.9303 98.3493 37.173 99.12 37.3538L99.7717 37.5141C100.985 37.7979 101.485 38.2911 101.485 39.1831C101.485 40.3177 100.608 41.0289 99.2063 41.0289C97.8944 41.0289 97.0128 40.3505 96.9473 39.2899V39.2901Z" fill="black"/>
</g>
<defs>
<filter id="filter0_d" x="0" y="0" width="105.485" height="66.9197" filterUnits="userSpaceOnUse" color-interpolation-filters="sRGB">
<feFlood flood-opacity="0" result="BackgroundImageFix"/>
<feColorMatrix in="SourceAlpha" type="matrix" values="0 0 0 0 0 0 0 0 0 0 0 0 0 0 0 0 0 0 127 0"/>
<feOffset dy="4"/>
<feGaussianBlur stdDeviation="2"/>
<feColorMatrix type="matrix" values="0 0 0 0 0 0 0 0 0 0 0 0 0 0 0 0 0 0 0.08 0"/>
<feBlend mode="normal" in2="BackgroundImageFix" result="effect1_dropShadow"/>
<feBlend mode="normal" in="SourceGraphic" in2="effect1_dropShadow" result="shape"/>
</filter>
<clipPath id="clip0">
<rect width="97.4854" height="58.9197" fill="white" transform="translate(4)"/>
</clipPath>
</defs>
</svg>
