<svg xmlns="http://www.w3.org/2000/svg" width="65" height="65" fill="none" viewBox="0 0 65 65"><path fill="#000" fill-rule="evenodd" d="M60.2169 18.121L32.259 1.80652L4.30121 18.121V46.3971L8.62822 48.9219L17.4758 45.3433C18.6664 44.8612 19.686 44.0346 20.404 42.9695C21.122 41.9044 21.5057 40.6492 21.506 39.3646V17.2048H25.8072V39.3646C25.8069 41.5059 25.1673 43.5984 23.9704 45.3739C22.7734 47.1494 21.0736 48.5271 19.0887 49.3305L13.3251 51.6618L32.259 62.7116L60.2169 46.4014V18.121ZM30.1084 25.8072C30.1084 23.5257 31.0148 21.3377 32.628 19.7244C34.2413 18.1111 36.4293 17.2048 38.7108 17.2048H43.7303C48.0832 17.2048 51.6145 20.7318 51.6145 25.0889V25.8072H47.3133V25.0889C47.3133 24.6184 47.2206 24.1525 47.0405 23.7178C46.8605 23.2831 46.5965 22.8881 46.2638 22.5554C45.9311 22.2227 45.5362 21.9588 45.1015 21.7788C44.6668 21.5987 44.2009 21.506 43.7303 21.506H38.7108C37.5701 21.506 36.4761 21.9592 35.6694 22.7658C34.8628 23.5725 34.4096 24.6665 34.4096 25.8072C34.4096 26.948 34.8628 28.042 35.6694 28.8486C36.4761 29.6553 37.5701 30.1084 38.7108 30.1084H43.012C45.2935 30.1084 47.4816 31.0148 49.0949 32.628C50.7081 34.2413 51.6145 36.4293 51.6145 38.7108C51.6145 40.9923 50.7081 43.1804 49.0949 44.7937C47.4816 46.4069 45.2935 47.3133 43.012 47.3133H38.7108C36.4293 47.3133 34.2413 46.4069 32.628 44.7937C31.0148 43.1804 30.1084 40.9923 30.1084 38.7108H34.4096C34.4096 39.8516 34.8628 40.9456 35.6694 41.7523C36.4761 42.5589 37.5701 43.0121 38.7108 43.0121H43.012C44.1528 43.0121 45.2468 42.5589 46.0535 41.7523C46.8601 40.9456 47.3133 39.8516 47.3133 38.7108C47.3133 37.5701 46.8601 36.4761 46.0535 35.6694C45.2468 34.8628 44.1528 34.4096 43.012 34.4096H38.7108C36.4293 34.4096 34.2413 33.5033 32.628 31.8901C31.0148 30.2768 30.1084 28.0887 30.1084 25.8072Z" clip-rule="evenodd"/></svg>