<svg width="80" height="80" viewBox="0 0 80 80" fill="none" xmlns="http://www.w3.org/2000/svg">
<path d="M39.7676 43.181C43.0346 43.181 45.6831 40.5325 45.6831 37.2655C45.6831 33.9985 43.0346 31.3501 39.7676 31.3501C36.5006 31.3501 33.8522 33.9985 33.8522 37.2655C33.8522 40.5325 36.5006 43.181 39.7676 43.181Z" fill="black"/>
<path d="M23.2044 49.0269L21.8954 48.6922C12.1722 46.2365 6.59482 42.0609 6.59482 37.2523C6.59482 32.4404 12.1755 28.2681 21.8954 25.8125L23.2044 25.4811L23.5723 26.7769C24.555 30.1694 25.8141 33.4756 27.337 36.6624L27.6186 37.2523L27.337 37.8422C25.8125 41.0336 24.5499 44.3409 23.5723 47.7344L23.2044 49.0269ZM21.2923 28.8282C13.9054 30.9094 9.36861 34.0842 9.36861 37.2523C9.36861 40.4139 13.9021 43.5919 21.2923 45.6698C22.197 42.7933 23.2906 39.9797 24.5565 37.2523C23.2814 34.5204 22.1909 31.706 21.2923 28.8282ZM56.3276 49.0269L55.963 47.7278C54.9777 44.3346 53.7175 41.0274 52.1951 37.8389L51.9134 37.2523L52.1951 36.6591C53.7195 33.4744 54.9755 30.1637 55.963 26.7702L56.3276 25.4778L57.6366 25.8092C67.3631 28.2648 72.9372 32.4371 72.9372 37.2523C72.9372 42.0642 67.3598 46.2365 57.6366 48.6922L56.3276 49.0269ZM54.9688 37.2523C56.2944 40.1222 57.398 42.9457 58.2397 45.6698C65.6299 43.5919 70.1667 40.4139 70.1667 37.2523C70.1667 34.0842 65.6332 30.9127 58.2397 28.8282C57.3359 31.7051 56.2433 34.5193 54.9688 37.2523Z" fill="black"/>
<path d="M21.2724 28.815L20.9079 27.5226C18.1705 17.8855 18.999 10.9825 23.1846 8.57659C27.2773 6.2071 33.8622 9.00741 40.7586 16.0827L41.6997 17.0504L40.7586 18.0148C38.3091 20.5622 36.0704 23.3041 34.0643 26.2135L33.6899 26.7504L33.0403 26.8034C29.5129 27.0805 26.0139 27.6446 22.5781 28.4902L21.2724 28.815ZM26.5151 10.4921C25.7728 10.4921 25.1166 10.6545 24.5632 10.9726C21.8192 12.5534 21.3354 18.0579 23.2243 25.4878C26.1771 24.8349 29.1563 24.3677 32.1588 24.1059C33.897 21.6404 35.7933 19.2903 37.8356 17.0703C33.5175 12.8715 29.4413 10.4921 26.5151 10.4921ZM53.0169 66.7765C49.0799 66.7765 44.0228 63.8072 38.7735 58.4187L37.8356 57.4543L38.7735 56.4933C41.2233 53.9418 43.4631 51.1966 45.471 48.2846L45.8422 47.7543L46.4851 47.6914C50.0138 47.4192 53.5141 46.8573 56.9506 46.0112L58.2596 45.6798L58.6275 46.9756C61.3516 56.606 60.5264 63.5189 56.3475 65.9248C55.3328 66.5 54.1831 66.794 53.0169 66.7765ZM41.6997 57.4311C46.0145 61.6299 50.094 64.0127 53.0169 64.0127C53.7626 64.0127 54.4187 63.847 54.9689 63.5322C57.7161 61.9481 58.2033 56.4336 56.3077 49.0037C53.3583 49.6599 50.3757 50.1305 47.3666 50.3923C45.6358 52.8616 43.7426 55.2131 41.6997 57.4311Z" fill="black"/>
<path d="M58.2596 28.8149L56.9506 28.4869C53.5142 27.6386 50.0139 27.0744 46.4851 26.8L45.8422 26.7437L45.471 26.2068C43.4659 23.2958 41.2259 20.5537 38.7735 18.0081L37.8356 17.0437L38.7735 16.0827C45.6665 9.01065 52.2481 6.21034 56.3475 8.57652C60.5297 10.9858 61.3615 17.8888 58.6275 27.5225L58.2596 28.8149ZM47.3666 24.1058C50.5281 24.3875 53.524 24.8614 56.3077 25.4877C58.2 18.0578 57.7161 12.5533 54.9689 10.9692C52.2381 9.38844 47.0982 11.8076 41.6997 17.0702C43.7411 19.2906 45.6367 21.6369 47.3666 24.1058ZM26.5151 66.7765C25.349 66.7931 24.1995 66.4992 23.1846 65.9248C18.999 63.5188 18.1705 56.6092 20.9046 46.9755L21.2625 45.6797L22.5715 46.0111C25.7661 46.8164 29.2856 47.3831 33.037 47.6913L33.6799 47.7543L34.0544 48.2845C36.056 51.1942 38.2963 53.9415 40.7486 56.4932L41.6898 57.4543L40.7486 58.4186C35.5026 63.8105 30.4455 66.7765 26.5151 66.7765ZM23.2243 49.007C21.3354 56.4369 21.8192 61.9513 24.5632 63.5354C27.2972 65.093 32.4206 62.6903 37.8356 57.4311C35.7941 55.2104 33.8979 52.8603 32.1588 50.3955C29.1533 50.1297 26.1687 49.6659 23.2243 49.007Z" fill="black"/>
<path d="M39.7676 50.7468C37.4909 50.7468 35.1546 50.6507 32.8083 50.4552L32.1588 50.3989L31.7843 49.862C30.4612 47.9595 29.2163 46.0037 28.0528 43.9996C26.8978 41.9901 25.8243 39.9349 24.8349 37.8389L24.5565 37.2524L24.8349 36.6592C25.8258 34.5647 26.8962 32.5101 28.0528 30.5018C29.2027 28.5267 30.4587 26.5515 31.7843 24.6361L32.1588 24.1058L32.8083 24.0462C37.4375 23.6584 42.0911 23.6584 46.7204 24.0462L47.3633 24.1091L47.7377 24.6394C50.3882 28.4463 52.7161 32.468 54.6971 36.6625L54.9721 37.2557L54.6971 37.8422C52.7216 42.0396 50.3935 46.0617 47.7377 49.8653L47.3633 50.4022L46.7204 50.4585C44.3807 50.6474 42.041 50.7468 39.7676 50.7468ZM33.6898 47.751C37.7826 48.0592 41.7527 48.0592 45.8422 47.751C48.1251 44.4079 50.1545 40.8985 51.9133 37.2524C50.1607 33.6029 48.1311 30.093 45.8422 26.7537C41.7974 26.4422 37.7346 26.4422 33.6898 26.7537C31.399 30.0918 29.3692 33.6018 27.6186 37.2524C29.3813 40.8965 31.4105 44.4056 33.6898 47.751Z" fill="black"/>
</svg>
