<svg xmlns="http://www.w3.org/2000/svg" width="63" height="63" fill="none" viewBox="0 0 63 63"><path fill="#000" d="M41.1101 40.8161C41.9984 40.7294 42.8185 40.3021 43.3985 39.6237C43.9784 38.9454 44.2731 38.0688 44.2207 37.1779C44.1798 36.2629 43.7895 35.3984 43.1302 34.7626C42.4709 34.1267 41.5929 33.7679 40.677 33.7601H40.551C39.6114 33.7937 38.7235 34.1986 38.0822 34.8862C37.441 35.5737 37.0987 36.4876 37.1306 37.4272C37.1936 38.4221 37.6005 39.2306 38.157 39.8186C35.9861 44.0422 32.7232 47.1529 27.7777 49.7621C24.4545 51.5025 20.9422 52.1561 17.5271 51.6889C14.6685 51.2872 12.4346 50.0089 11.0617 47.9587C9.01423 44.8481 8.82523 41.496 10.5341 38.1412C11.5763 36.1398 13.0656 34.4054 14.8864 33.0724C14.5117 32.0316 14.2212 30.9624 14.0175 29.8751C4.81423 36.4639 5.75398 45.4729 8.54698 49.7306C10.6312 52.8386 14.8864 54.8257 19.5457 54.8257C20.79 54.8257 22.0972 54.7339 23.3704 54.4215C31.4475 52.8675 37.569 48.0217 41.0812 40.8765L41.1101 40.8161Z"/><path fill="#000" d="M52.2034 33.046C47.3891 27.3918 40.3043 24.2864 32.2245 24.2864H31.1666C30.6416 23.1367 29.4315 22.42 28.0613 22.42H27.9668C26.0138 22.42 24.4886 24.1 24.5516 26.0557C24.612 27.9194 26.1975 29.4734 28.0954 29.4734H28.2503C28.922 29.448 29.5723 29.2295 30.123 28.844C30.6738 28.4585 31.1017 27.9224 31.3556 27.2999H32.508C37.296 27.2999 41.8294 28.6964 45.9638 31.4317C49.1295 33.5107 51.4028 36.2459 52.6759 39.5088C53.7915 42.1837 53.7311 44.7929 52.584 46.9717C50.8121 50.3894 47.8275 52.1902 43.8848 52.1902C41.3989 52.1902 38.9734 51.4132 37.7291 50.854C36.9863 51.4709 35.7394 52.4973 34.8364 53.1194C37.5716 54.361 40.3384 55.0777 43.008 55.0777C49.0691 55.0777 53.5684 51.6599 55.2825 48.3655C57.1436 44.6328 56.9914 38.3564 52.2349 32.9857L52.2034 33.046Z"/><path fill="#000" d="M20.0734 41.9344C20.1337 43.7981 21.7166 45.3521 23.6171 45.3521H23.7431C24.2101 45.3414 24.6703 45.2374 25.0964 45.0462C25.5226 44.855 25.9063 44.5805 26.2247 44.2388C26.5432 43.897 26.7901 43.4951 26.9509 43.0565C27.1117 42.6179 27.183 42.1516 27.1609 41.685C27.1609 39.8213 25.5439 38.2699 23.6486 38.2699H23.5226C23.3966 38.2699 23.2129 38.2699 23.0554 38.3276C20.4776 33.978 19.3882 29.3134 19.7951 24.2865C20.0419 20.4934 21.2835 17.199 23.5226 14.4638C25.3864 12.1328 28.8986 10.983 31.2926 10.92C38.0021 10.794 40.8004 19.1573 41.0156 22.4805L44.1236 23.4098C43.407 13.2195 37.0702 7.875 31.0091 7.875C25.3234 7.875 20.0734 12.0067 17.9602 18.0705C15.0675 26.1476 16.9654 33.915 20.5091 40.131C20.1994 40.5353 20.013 41.2493 20.0734 41.9344Z"/></svg>